  0
SECTION
  2
HEADER
  9
$ACADVER
  1
AC1009
  9
$DWGCODEPAGE
  3
ansi_1252
  9
$INSBASE
 10
0.0
 20
0.0
 30
0.0
  9
$EXTMIN
 10
510.0
 20
-205.273729868855
 30
59.19728174714123
  9
$EXTMAX
 10
1246.18417716342
 20
21.34519162545492
 30
88.19728174730156
  9
$LIMMIN
 10
0.0
 20
0.0
  9
$LIMMAX
 10
12.0
 20
9.0
  9
$ORTHOMODE
 70
     0
  9
$REGENMODE
 70
     1
  9
$FILLMODE
 70
     1
  9
$QTEXTMODE
 70
     0
  9
$MIRRTEXT
 70
     1
  9
$DRAGMODE
 70
     2
  9
$LTSCALE
 40
1.0
  9
$OSMODE
 70
    37
  9
$ATTMODE
 70
     1
  9
$TEXTSIZE
 40
0.2
  9
$TRACEWID
 40
0.05
  9
$TEXTSTYLE
  7
STANDARD
  9
$CLAYER
  8
DEFAULT
  9
$CELTYPE
  6
BYLAYER
  9
$CECOLOR
 62
   256
  9
$DIMSCALE
 40
1.0
  9
$DIMASZ
 40
0.18
  9
$DIMEXO
 40
0.0625
  9
$DIMDLI
 40
0.38
  9
$DIMRND
 40
0.0
  9
$DIMDLE
 40
0.0
  9
$DIMEXE
 40
0.18
  9
$DIMTP
 40
0.0
  9
$DIMTM
 40
0.0
  9
$DIMTXT
 40
0.18
  9
$DIMCEN
 40
0.09
  9
$DIMTSZ
 40
0.0
  9
$DIMTOL
 70
     0
  9
$DIMLIM
 70
     0
  9
$DIMTIH
 70
     1
  9
$DIMTOH
 70
     1
  9
$DIMSE1
 70
     0
  9
$DIMSE2
 70
     0
  9
$DIMTAD
 70
     0
  9
$DIMZIN
 70
     0
  9
$DIMBLK
  1

  9
$DIMASO
 70
     1
  9
$DIMSHO
 70
     1
  9
$DIMPOST
  1

  9
$DIMAPOST
  1

  9
$DIMALT
 70
     0
  9
$DIMALTD
 70
     2
  9
$DIMALTF
 40
25.4
  9
$DIMLFAC
 40
1.0
  9
$DIMTOFL
 70
     0
  9
$DIMTVP
 40
0.0
  9
$DIMTIX
 70
     0
  9
$DIMSOXD
 70
     0
  9
$DIMSAH
 70
     0
  9
$DIMBLK1
  1

  9
$DIMBLK2
  1

  9
$DIMSTYLE
  2
STANDARD_ACAD
  9
$DIMCLRD
 70
     0
  9
$DIMCLRE
 70
     0
  9
$DIMCLRT
 70
     0
  9
$DIMTFAC
 40
1.0
  9
$DIMGAP
 40
0.09
  9
$LUNITS
 70
     2
  9
$LUPREC
 70
     3
  9
$SKETCHINC
 40
0.1
  9
$FILLETRAD
 40
0.0
  9
$AUNITS
 70
     0
  9
$AUPREC
 70
     0
  9
$MENU
  1
.
  9
$ELEVATION
 40
0.0
  9
$PELEVATION
 40
0.0
  9
$THICKNESS
 40
0.0
  9
$LIMCHECK
 70
     0
  9
$CHAMFERA
 40
0.0
  9
$CHAMFERB
 40
0.0
  9
$SKPOLY
 70
     0
  9
$TDCREATE
 40
2460784.509294873
  9
$TDUPDATE
 40
2460784.509312917
  9
$TDINDWG
 40
0.0000000116
  9
$TDUSRTIMER
 40
0.0000000116
  9
$USRTIMER
 70
     1
  9
$ANGBASE
 50
0.0
  9
$ANGDIR
 70
     0
  9
$PDMODE
 70
     0
  9
$PDSIZE
 40
0.0
  9
$PLINEWID
 40
0.0
  9
$COORDS
 70
     1
  9
$SPLFRAME
 70
     0
  9
$SPLINETYPE
 70
     6
  9
$SPLINESEGS
 70
     8
  9
$ATTDIA
 70
     0
  9
$ATTREQ
 70
     1
  9
$HANDLING
 70
     1
  9
$HANDSEED
  5
1F9
  9
$SURFTAB1
 70
     6
  9
$SURFTAB2
 70
     6
  9
$SURFTYPE
 70
     6
  9
$SURFU
 70
     6
  9
$SURFV
 70
     6
  9
$UCSNAME
  2

  9
$UCSORG
 10
0.0
 20
0.0
 30
0.0
  9
$UCSXDIR
 10
1.0
 20
0.0
 30
0.0
  9
$UCSYDIR
 10
0.0
 20
1.0
 30
0.0
  9
$PUCSNAME
  2

  9
$PUCSORG
 10
0.0
 20
0.0
 30
0.0
  9
$PUCSXDIR
 10
1.0
 20
0.0
 30
0.0
  9
$PUCSYDIR
 10
0.0
 20
1.0
 30
0.0
  9
$USERI1
 70
     0
  9
$USERI2
 70
     0
  9
$USERI3
 70
     0
  9
$USERI4
 70
     0
  9
$USERI5
 70
     0
  9
$USERR1
 40
0.0
  9
$USERR2
 40
0.0
  9
$USERR3
 40
0.0
  9
$USERR4
 40
0.0
  9
$USERR5
 40
0.0
  9
$WORLDVIEW
 70
     1
  9
$SHADEDGE
 70
     3
  9
$SHADEDIF
 70
    70
  9
$TILEMODE
 70
     1
  9
$MAXACTVP
 70
    64
  9
$PLIMCHECK
 70
     0
  9
$PEXTMIN
 10
1.000000000000000E+20
 20
1.000000000000000E+20
 30
1.000000000000000E+20
  9
$PEXTMAX
 10
-1.000000000000000E+20
 20
-1.000000000000000E+20
 30
-1.000000000000000E+20
  9
$PLIMMIN
 10
0.0
 20
0.0
  9
$PLIMMAX
 10
12.0
 20
9.0
  9
$UNITMODE
 70
     0
  9
$VISRETAIN
 70
     1
  9
$PLINEGEN
 70
     0
  9
$PSLTSCALE
 70
     1
  0
ENDSEC
  0
SECTION
  2
TABLES
  0
TABLE
  2
VPORT
 70
     1
  0
VPORT
  2
*ACTIVE
 70
     0
 10
0.0
 20
0.0
 11
1.0
 21
1.0
 12
10.42990654205607
 22
4.5
 13
0.0
 23
0.0
 14
0.5
 24
0.5
 15
0.5
 25
0.5
 16
0.0
 26
0.0
 36
1.0
 17
0.0
 27
0.0
 37
0.0
 40
9.0
 41
1.972972972850329
 42
50.0
 43
0.0
 44
0.0
 50
0.0
 51
0.0
 71
     0
 72
   100
 73
     1
 74
     3
 75
     0
 76
     0
 77
     0
 78
     0
  0
ENDTAB
  0
TABLE
  2
LTYPE
 70
     1
  0
LTYPE
  2
CONTINUOUS
 70
     0
  3
Solid line
 72
    65
 73
     0
 40
0.0
  0
ENDTAB
  0
TABLE
  2
LAYER
 70
     2
  0
LAYER
  2
0
 70
     0
 62
     7
  6
CONTINUOUS
  0
LAYER
  2
DEFAULT
 70
     0
 62
     7
  6
CONTINUOUS
  0
ENDTAB
  0
TABLE
  2
STYLE
 70
     1
  0
STYLE
  2
STANDARD
 70
     0
 40
0.0
 41
1.0
 50
0.0
 71
     0
 42
0.2
  3
txt
  4

  0
ENDTAB
  0
TABLE
  2
VIEW
 70
     0
  0
ENDTAB
  0
TABLE
  2
UCS
 70
     0
  0
ENDTAB
  0
TABLE
  2
APPID
 70
     2
  0
APPID
  2
ACAD
 70
     0
  0
APPID
  2
RHINO
 70
     0
  0
ENDTAB
  0
TABLE
  2
DIMSTYLE
 70
     1
  0
DIMSTYLE
  2
STANDARD_ACAD
 70
     0
  3

  4

  5

  6

  7

 40
1.0
 41
0.18
 42
0.0625
 43
0.38
 44
0.18
 45
0.0
 46
0.0
 47
0.0
 48
0.0
140
0.18
141
0.09
142
0.0
143
25.4
144
1.0
145
0.0
146
1.0
147
0.09
 71
     0
 72
     0
 73
     1
 74
     1
 75
     0
 76
     0
 77
     0
 78
     0
170
     0
171
     2
172
     0
173
     0
174
     0
175
     0
176
     0
177
     0
178
     0
  0
ENDTAB
  0
ENDSEC
  0
SECTION
  2
BLOCKS
  0
BLOCK
  8
0
  2
$MODEL_SPACE
 70
     0
 10
0.0
 20
0.0
 30
0.0
  3
$MODEL_SPACE
  1

  0
ENDBLK
  5
21
  8
0
  0
BLOCK
 67
     1
  8
0
  2
$PAPER_SPACE
 70
     0
 10
0.0
 20
0.0
 30
0.0
  3
$PAPER_SPACE
  1

  0
ENDBLK
  5
1D
 67
     1
  8
0
  0
ENDSEC
  0
SECTION
  2
ENTITIES
  0
LINE
  5
60
  8
DEFAULT
 10
1246.18417716342
 20
19.11044487822301
 30
76.42742891163141
 11
1246.18417716342
 21
-9.089268405218263
 31
76.42742891163141
  0
LINE
  5
61
  8
DEFAULT
 10
1246.18417716342
 20
-9.089268405218263
 30
76.42742891163141
 11
1222.110447294502
 21
-9.089268405218263
 31
76.42742891163141
  0
LINE
  5
62
  8
DEFAULT
 10
1222.110447294502
 20
-9.089268405218263
 30
76.42742891163141
 11
1222.110447294502
 21
-14.82868977595717
 31
76.42742891163141
  0
LINE
  5
63
  8
DEFAULT
 10
1222.110447294502
 20
-14.82868977595717
 30
76.42742891163141
 11
1206.110447294502
 21
-14.82868953752222
 31
76.42742891163141
  0
LINE
  5
64
  8
DEFAULT
 10
1206.110447294502
 20
-14.82868953752222
 30
76.42742891163141
 11
1206.110447294502
 21
-9.089268405218263
 31
76.42742891163141
  0
LINE
  5
65
  8
DEFAULT
 10
1206.110447294502
 20
-9.089268405218263
 30
76.42742891163141
 11
1182.110447294502
 21
-9.089268405218263
 31
76.42742891163141
  0
LINE
  5
66
  8
DEFAULT
 10
1182.110447294502
 20
-9.089268405218263
 30
76.42742891163141
 11
1182.110447294502
 21
-14.8286891798698
 31
76.42742891163141
  0
LINE
  5
67
  8
DEFAULT
 10
1182.110447294502
 20
-14.8286891798698
 30
76.42742891163141
 11
1148.110447294502
 21
-14.82868867319507
 31
76.42742891163141
  0
LINE
  5
68
  8
DEFAULT
 10
1148.110447294502
 20
-14.82868867319507
 30
76.42742891163141
 11
1148.110447294502
 21
-9.089268405218263
 31
76.42742891163141
  0
LINE
  5
69
  8
DEFAULT
 10
1148.110447294502
 20
-9.089268405218263
 30
76.42742891163141
 11
1124.110447294502
 21
-9.089268405218263
 31
76.42742891163141
  0
LINE
  5
6A
  8
DEFAULT
 10
1124.110447294502
 20
-9.089268405218263
 30
76.42742891163141
 11
1124.110447294502
 21
-14.82868831554242
 31
76.42742891163141
  0
LINE
  5
6B
  8
DEFAULT
 10
1124.110447294502
 20
-14.82868831554242
 30
76.42742891163141
 11
1108.110447294502
 21
-14.82868807710747
 31
76.42742891163141
  0
LINE
  5
6C
  8
DEFAULT
 10
1108.110447294502
 20
-14.82868807710747
 30
76.42742891163141
 11
1108.110447294502
 21
-9.089268405218263
 31
76.42742891163141
  0
LINE
  5
6D
  8
DEFAULT
 10
1108.110447294502
 20
-9.089268405218263
 30
76.42742891163141
 11
1084.036717425626
 21
-9.089268405218263
 31
76.42742891163141
  0
LINE
  5
6E
  8
DEFAULT
 10
1084.036717425626
 20
-9.089268405218263
 30
76.42742891163141
 11
1084.036717425626
 21
19.11044729450214
 31
76.42742891163141
  0
LINE
  5
6F
  8
DEFAULT
 10
1084.036717425626
 20
19.11044729450214
 30
76.42742891163141
 11
1101.110447294544
 21
19.11044704007418
 31
76.42742891163141
  0
LINE
  5
70
  8
DEFAULT
 10
1101.110447294544
 20
19.11044704007418
 30
76.42742891163141
 11
1101.110447294544
 21
10.91073159494272
 31
76.42742891163141
  0
LINE
  5
71
  8
DEFAULT
 10
1101.110447294544
 20
10.91073159494272
 30
76.42742891163141
 11
1121.601300433286
 21
10.91073159494272
 31
76.42742891163141
  0
LINE
  5
72
  8
DEFAULT
 10
1121.601300433286
 20
10.91073159494272
 30
76.42742891163141
 11
1121.601300433286
 21
19.11044673472452
 31
76.42742891163141
  0
LINE
  5
73
  8
DEFAULT
 10
1121.601300433286
 20
19.11044673472452
 30
76.42742891163141
 11
1146.812113213289
 21
19.11044635903977
 31
76.42742891163141
  0
LINE
  5
74
  8
DEFAULT
 10
1146.812113213289
 20
19.11044635903977
 30
76.42742891163141
 11
1146.812113213289
 21
10.91073159494272
 31
76.42742891163141
  0
LINE
  5
75
  8
DEFAULT
 10
1146.812113213289
 20
10.91073159494272
 30
76.42742891163141
 11
1183.375556487515
 21
10.91073159494272
 31
76.42742891163141
  0
LINE
  5
76
  8
DEFAULT
 10
1183.375556487515
 20
10.91073159494272
 30
76.42742891163141
 11
1183.375556487515
 21
19.11044581418082
 31
76.42742891163141
  0
LINE
  5
77
  8
DEFAULT
 10
1183.375556487515
 20
19.11044581418082
 30
76.42742891163141
 11
1208.61959415576
 21
19.11044543800062
 31
76.42742891163141
  0
LINE
  5
78
  8
DEFAULT
 10
1208.61959415576
 20
19.11044543800062
 30
76.42742891163141
 11
1208.61959415576
 21
10.91073159494249
 31
76.42742891163141
  0
LINE
  5
79
  8
DEFAULT
 10
1208.61959415576
 20
10.91073159494249
 30
76.42742891163141
 11
1229.110447294502
 21
10.91073159494272
 31
76.42742891163141
  0
LINE
  5
7A
  8
DEFAULT
 10
1229.110447294502
 20
10.91073159494272
 30
76.42742891163141
 11
1229.110447294502
 21
19.11044513265142
 31
76.42742891163141
  0
LINE
  5
7B
  8
DEFAULT
 10
1229.110447294502
 20
19.11044513265142
 30
76.42742891163141
 11
1246.18417716342
 21
19.11044487822301
 31
76.42742891163141
  0
LINE
  5
7C
  8
DEFAULT
 10
1103.610447294502
 20
-20.11044729454397
 30
73.69728174730137
 11
1087.974214153541
 21
-20.11044729454397
 31
73.69728174730137
  0
LINE
  5
7D
  8
DEFAULT
 10
1087.974214153541
 20
-20.11044729454397
 30
73.69728174730137
 11
1087.974214153541
 21
-43.11044729470495
 31
73.69728174730137
  0
LINE
  5
7E
  8
DEFAULT
 10
1087.974214153541
 20
-43.11044729470495
 30
73.69728174730137
 11
1108.610447294502
 21
-43.11044729470495
 31
73.69728174730137
  0
LINE
  5
7F
  8
DEFAULT
 10
1108.610447294502
 20
-43.11044729470495
 30
73.69728174730137
 11
1108.610447294502
 21
-49.11044729454397
 31
73.69728174730137
  0
LINE
  5
80
  8
DEFAULT
 10
1108.610447294502
 20
-49.11044729454397
 30
73.69728174730137
 11
1124.610447294502
 21
-49.11044729454397
 31
73.69728174730137
  0
LINE
  5
81
  8
DEFAULT
 10
1124.610447294502
 20
-49.11044729454397
 30
73.69728174730137
 11
1124.610447294502
 21
-43.11044729470495
 31
73.69728174730133
  0
LINE
  5
82
  8
DEFAULT
 10
1124.610447294502
 20
-43.11044729470495
 30
73.69728174730133
 11
1148.610447294502
 21
-43.11044729470495
 31
73.69728174730167
  0
LINE
  5
83
  8
DEFAULT
 10
1148.610447294502
 20
-43.11044729470495
 30
73.69728174730167
 11
1148.610447294502
 21
-49.11044729454397
 31
73.69728174730137
  0
LINE
  5
84
  8
DEFAULT
 10
1148.610447294502
 20
-49.11044729454397
 30
73.69728174730137
 11
1182.610447294502
 21
-49.11044729454397
 31
73.69728174730137
  0
LINE
  5
85
  8
DEFAULT
 10
1182.610447294502
 20
-49.11044729454397
 30
73.69728174730137
 11
1182.610447294502
 21
-43.11044729470495
 31
73.6972817473016
  0
LINE
  5
86
  8
DEFAULT
 10
1182.610447294502
 20
-43.11044729470495
 30
73.6972817473016
 11
1206.610447294502
 21
-43.11044729470495
 31
73.69728174730176
  0
LINE
  5
87
  8
DEFAULT
 10
1206.610447294502
 20
-43.11044729470495
 30
73.69728174730176
 11
1206.610447294502
 21
-49.11044729454397
 31
73.69728174730137
  0
LINE
  5
88
  8
DEFAULT
 10
1206.610447294502
 20
-49.11044729454397
 30
73.69728174730137
 11
1222.610447294502
 21
-49.11044729454397
 31
73.69728174730137
  0
LINE
  5
89
  8
DEFAULT
 10
1222.610447294502
 20
-49.11044729454397
 30
73.69728174730137
 11
1222.610447294502
 21
-43.11044729470495
 31
73.69728174730169
  0
LINE
  5
8A
  8
DEFAULT
 10
1222.610447294502
 20
-43.11044729470495
 30
73.69728174730169
 11
1243.246680435463
 21
-43.11044729470495
 31
73.69728174730137
  0
LINE
  5
8B
  8
DEFAULT
 10
1243.246680435463
 20
-43.11044729470495
 30
73.69728174730137
 11
1243.246680435463
 21
-20.11044729454397
 31
73.69728174730137
  0
LINE
  5
8C
  8
DEFAULT
 10
1243.246680435463
 20
-20.11044729454397
 30
73.69728174730137
 11
1227.610447294502
 21
-20.11044729454397
 31
73.69728174730137
  0
LINE
  5
8D
  8
DEFAULT
 10
1227.610447294502
 20
-20.11044729454397
 30
73.69728174730137
 11
1227.610447294502
 21
-23.11044729454397
 31
73.69728174730137
  0
LINE
  5
8E
  8
DEFAULT
 10
1227.610447294502
 20
-23.11044729454397
 30
73.69728174730137
 11
1205.610447294502
 21
-23.11044729454397
 31
73.69728174730137
  0
LINE
  5
8F
  8
DEFAULT
 10
1205.610447294502
 20
-23.11044729454397
 30
73.69728174730137
 11
1205.610447294502
 21
-20.11044729454397
 31
73.69728174730137
  0
LINE
  5
90
  8
DEFAULT
 10
1205.610447294502
 20
-20.11044729454397
 30
73.69728174730137
 11
1176.610447294502
 21
-20.11044729454397
 31
73.69728174730137
  0
LINE
  5
91
  8
DEFAULT
 10
1176.610447294502
 20
-20.11044729454397
 30
73.69728174730137
 11
1176.610447294502
 21
-23.11044729454397
 31
73.69728174730137
  0
LINE
  5
92
  8
DEFAULT
 10
1176.610447294502
 20
-23.11044729454397
 30
73.69728174730137
 11
1154.610447294502
 21
-23.11044729454397
 31
73.69728174730137
  0
LINE
  5
93
  8
DEFAULT
 10
1154.610447294502
 20
-23.11044729454397
 30
73.69728174730137
 11
1154.610447294502
 21
-20.11044729454397
 31
73.69728174730137
  0
LINE
  5
94
  8
DEFAULT
 10
1154.610447294502
 20
-20.11044729454397
 30
73.69728174730137
 11
1125.610447294502
 21
-20.11044729454397
 31
73.69728174730137
  0
LINE
  5
95
  8
DEFAULT
 10
1125.610447294502
 20
-20.11044729454397
 30
73.69728174730137
 11
1125.610447294502
 21
-23.11044729454443
 31
73.69728174730137
  0
LINE
  5
96
  8
DEFAULT
 10
1125.610447294502
 20
-23.11044729454443
 30
73.69728174730137
 11
1103.610447294502
 21
-23.11044729454443
 31
73.69728174730137
  0
LINE
  5
97
  8
DEFAULT
 10
1103.610447294502
 20
-23.11044729454443
 30
73.69728174730137
 11
1103.610447294502
 21
-20.11044729454397
 31
73.69728174730137
  0
LINE
  5
98
  8
DEFAULT
 10
1103.610447294502
 20
-98.11044729454397
 30
73.69728174730137
 11
1087.974214153541
 21
-98.11044729454397
 31
73.69728174730137
  0
LINE
  5
99
  8
DEFAULT
 10
1087.974214153541
 20
-98.11044729454397
 30
73.69728174730137
 11
1087.974214153541
 21
-121.110447294705
 31
73.69728174730137
  0
LINE
  5
9A
  8
DEFAULT
 10
1087.974214153541
 20
-121.110447294705
 30
73.69728174730137
 11
1108.610447294502
 21
-121.110447294705
 31
73.69728174730137
  0
LINE
  5
9B
  8
DEFAULT
 10
1108.610447294502
 20
-121.110447294705
 30
73.69728174730137
 11
1108.610447294502
 21
-127.110447294544
 31
73.69728174730137
  0
LINE
  5
9C
  8
DEFAULT
 10
1108.610447294502
 20
-127.110447294544
 30
73.69728174730137
 11
1124.610447294502
 21
-127.110447294544
 31
73.69728174730137
  0
LINE
  5
9D
  8
DEFAULT
 10
1124.610447294502
 20
-127.110447294544
 30
73.69728174730137
 11
1124.610447294502
 21
-121.110447294705
 31
73.69728174730133
  0
LINE
  5
9E
  8
DEFAULT
 10
1124.610447294502
 20
-121.110447294705
 30
73.69728174730133
 11
1148.610447294502
 21
-121.110447294705
 31
73.69728174730167
  0
LINE
  5
9F
  8
DEFAULT
 10
1148.610447294502
 20
-121.110447294705
 30
73.69728174730167
 11
1148.610447294502
 21
-127.110447294544
 31
73.69728174730137
  0
LINE
  5
A0
  8
DEFAULT
 10
1148.610447294502
 20
-127.110447294544
 30
73.69728174730137
 11
1182.610447294502
 21
-127.110447294544
 31
73.69728174730137
  0
LINE
  5
A1
  8
DEFAULT
 10
1182.610447294502
 20
-127.110447294544
 30
73.69728174730137
 11
1182.610447294502
 21
-121.110447294705
 31
73.6972817473016
  0
LINE
  5
A2
  8
DEFAULT
 10
1182.610447294502
 20
-121.110447294705
 30
73.6972817473016
 11
1206.610447294502
 21
-121.110447294705
 31
73.69728174730176
  0
LINE
  5
A3
  8
DEFAULT
 10
1206.610447294502
 20
-121.110447294705
 30
73.69728174730176
 11
1206.610447294502
 21
-127.110447294544
 31
73.69728174730137
  0
LINE
  5
A4
  8
DEFAULT
 10
1206.610447294502
 20
-127.110447294544
 30
73.69728174730137
 11
1222.610447294502
 21
-127.110447294544
 31
73.69728174730137
  0
LINE
  5
A5
  8
DEFAULT
 10
1222.610447294502
 20
-127.110447294544
 30
73.69728174730137
 11
1222.610447294502
 21
-121.110447294705
 31
73.69728174730169
  0
LINE
  5
A6
  8
DEFAULT
 10
1222.610447294502
 20
-121.110447294705
 30
73.69728174730169
 11
1243.246680435463
 21
-121.110447294705
 31
73.69728174730137
  0
LINE
  5
A7
  8
DEFAULT
 10
1243.246680435463
 20
-121.110447294705
 30
73.69728174730137
 11
1243.246680435463
 21
-98.11044729454397
 31
73.69728174730137
  0
LINE
  5
A8
  8
DEFAULT
 10
1243.246680435463
 20
-98.11044729454397
 30
73.69728174730137
 11
1227.610447294502
 21
-98.11044729454397
 31
73.69728174730137
  0
LINE
  5
A9
  8
DEFAULT
 10
1227.610447294502
 20
-98.11044729454397
 30
73.69728174730137
 11
1227.610447294502
 21
-101.110447294544
 31
73.69728174730137
  0
LINE
  5
AA
  8
DEFAULT
 10
1227.610447294502
 20
-101.110447294544
 30
73.69728174730137
 11
1205.610447294502
 21
-101.110447294544
 31
73.69728174730137
  0
LINE
  5
AB
  8
DEFAULT
 10
1205.610447294502
 20
-101.110447294544
 30
73.69728174730137
 11
1205.610447294502
 21
-98.11044729454397
 31
73.69728174730137
  0
LINE
  5
AC
  8
DEFAULT
 10
1205.610447294502
 20
-98.11044729454397
 30
73.69728174730137
 11
1176.610447294502
 21
-98.11044729454397
 31
73.69728174730137
  0
LINE
  5
AD
  8
DEFAULT
 10
1176.610447294502
 20
-98.11044729454397
 30
73.69728174730137
 11
1176.610447294502
 21
-101.110447294544
 31
73.69728174730137
  0
LINE
  5
AE
  8
DEFAULT
 10
1176.610447294502
 20
-101.110447294544
 30
73.69728174730137
 11
1154.610447294502
 21
-101.110447294544
 31
73.69728174730137
  0
LINE
  5
AF
  8
DEFAULT
 10
1154.610447294502
 20
-101.110447294544
 30
73.69728174730137
 11
1154.610447294502
 21
-98.11044729454397
 31
73.69728174730137
  0
LINE
  5
B0
  8
DEFAULT
 10
1154.610447294502
 20
-98.11044729454397
 30
73.69728174730137
 11
1125.610447294502
 21
-98.11044729454397
 31
73.69728174730137
  0
LINE
  5
B1
  8
DEFAULT
 10
1125.610447294502
 20
-98.11044729454397
 30
73.69728174730137
 11
1125.610447294502
 21
-101.1104472945444
 31
73.69728174730137
  0
LINE
  5
B2
  8
DEFAULT
 10
1125.610447294502
 20
-101.1104472945444
 30
73.69728174730137
 11
1103.610447294502
 21
-101.1104472945444
 31
73.69728174730137
  0
LINE
  5
B3
  8
DEFAULT
 10
1103.610447294502
 20
-101.1104472945444
 30
73.69728174730137
 11
1103.610447294502
 21
-98.11044729454397
 31
73.69728174730137
  0
LINE
  5
B4
  8
DEFAULT
 10
1246.18417716342
 20
-58.88955512177699
 30
76.42742891163141
 11
1246.18417716342
 21
-87.08926840521826
 31
76.42742891163141
  0
LINE
  5
B5
  8
DEFAULT
 10
1246.18417716342
 20
-87.08926840521826
 30
76.42742891163141
 11
1222.110447294502
 21
-87.08926840521826
 31
76.42742891163141
  0
LINE
  5
B6
  8
DEFAULT
 10
1222.110447294502
 20
-87.08926840521826
 30
76.42742891163141
 11
1222.110447294502
 21
-92.82868977595717
 31
76.42742891163141
  0
LINE
  5
B7
  8
DEFAULT
 10
1222.110447294502
 20
-92.82868977595717
 30
76.42742891163141
 11
1206.110447294502
 21
-92.82868953752222
 31
76.42742891163141
  0
LINE
  5
B8
  8
DEFAULT
 10
1206.110447294502
 20
-92.82868953752222
 30
76.42742891163141
 11
1206.110447294502
 21
-87.08926840521826
 31
76.42742891163141
  0
LINE
  5
B9
  8
DEFAULT
 10
1206.110447294502
 20
-87.08926840521826
 30
76.42742891163141
 11
1182.110447294502
 21
-87.08926840521826
 31
76.42742891163141
  0
LINE
  5
BA
  8
DEFAULT
 10
1182.110447294502
 20
-87.08926840521826
 30
76.42742891163141
 11
1182.110447294502
 21
-92.8286891798698
 31
76.42742891163141
  0
LINE
  5
BB
  8
DEFAULT
 10
1182.110447294502
 20
-92.8286891798698
 30
76.42742891163141
 11
1148.110447294502
 21
-92.82868867319507
 31
76.42742891163141
  0
LINE
  5
BC
  8
DEFAULT
 10
1148.110447294502
 20
-92.82868867319507
 30
76.42742891163141
 11
1148.110447294502
 21
-87.08926840521826
 31
76.42742891163141
  0
LINE
  5
BD
  8
DEFAULT
 10
1148.110447294502
 20
-87.08926840521826
 30
76.42742891163141
 11
1124.110447294502
 21
-87.08926840521826
 31
76.42742891163141
  0
LINE
  5
BE
  8
DEFAULT
 10
1124.110447294502
 20
-87.08926840521826
 30
76.42742891163141
 11
1124.110447294502
 21
-92.82868831554242
 31
76.42742891163141
  0
LINE
  5
BF
  8
DEFAULT
 10
1124.110447294502
 20
-92.82868831554242
 30
76.42742891163141
 11
1108.110447294502
 21
-92.82868807710747
 31
76.42742891163141
  0
LINE
  5
C0
  8
DEFAULT
 10
1108.110447294502
 20
-92.82868807710747
 30
76.42742891163141
 11
1108.110447294502
 21
-87.08926840521826
 31
76.42742891163141
  0
LINE
  5
C1
  8
DEFAULT
 10
1108.110447294502
 20
-87.08926840521826
 30
76.42742891163141
 11
1084.036717425626
 21
-87.08926840521826
 31
76.42742891163141
  0
LINE
  5
C2
  8
DEFAULT
 10
1084.036717425626
 20
-87.08926840521826
 30
76.42742891163141
 11
1084.036717425626
 21
-58.88955270549786
 31
76.42742891163141
  0
LINE
  5
C3
  8
DEFAULT
 10
1084.036717425626
 20
-58.88955270549786
 30
76.42742891163141
 11
1101.110447294544
 21
-58.88955295992582
 31
76.42742891163141
  0
LINE
  5
C4
  8
DEFAULT
 10
1101.110447294544
 20
-58.88955295992582
 30
76.42742891163141
 11
1101.110447294544
 21
-67.08926840505728
 31
76.42742891163141
  0
LINE
  5
C5
  8
DEFAULT
 10
1101.110447294544
 20
-67.08926840505728
 30
76.42742891163141
 11
1121.601300433286
 21
-67.08926840505728
 31
76.42742891163141
  0
LINE
  5
C6
  8
DEFAULT
 10
1121.601300433286
 20
-67.08926840505728
 30
76.42742891163141
 11
1121.601300433286
 21
-58.88955326527548
 31
76.42742891163141
  0
LINE
  5
C7
  8
DEFAULT
 10
1121.601300433286
 20
-58.88955326527548
 30
76.42742891163141
 11
1146.812113213289
 21
-58.88955364096023
 31
76.42742891163141
  0
LINE
  5
C8
  8
DEFAULT
 10
1146.812113213289
 20
-58.88955364096023
 30
76.42742891163141
 11
1146.812113213289
 21
-67.08926840505728
 31
76.42742891163141
  0
LINE
  5
C9
  8
DEFAULT
 10
1146.812113213289
 20
-67.08926840505728
 30
76.42742891163141
 11
1183.375556487515
 21
-67.08926840505728
 31
76.42742891163141
  0
LINE
  5
CA
  8
DEFAULT
 10
1183.375556487515
 20
-67.08926840505728
 30
76.42742891163141
 11
1183.375556487515
 21
-58.88955418581918
 31
76.42742891163141
  0
LINE
  5
CB
  8
DEFAULT
 10
1183.375556487515
 20
-58.88955418581918
 30
76.42742891163141
 11
1208.61959415576
 21
-58.88955456199938
 31
76.42742891163141
  0
LINE
  5
CC
  8
DEFAULT
 10
1208.61959415576
 20
-58.88955456199938
 30
76.42742891163141
 11
1208.61959415576
 21
-67.08926840505751
 31
76.42742891163141
  0
LINE
  5
CD
  8
DEFAULT
 10
1208.61959415576
 20
-67.08926840505751
 30
76.42742891163141
 11
1229.110447294502
 21
-67.08926840505728
 31
76.42742891163141
  0
LINE
  5
CE
  8
DEFAULT
 10
1229.110447294502
 20
-67.08926840505728
 30
76.42742891163141
 11
1229.110447294502
 21
-58.88955486734858
 31
76.42742891163141
  0
LINE
  5
CF
  8
DEFAULT
 10
1229.110447294502
 20
-58.88955486734858
 30
76.42742891163141
 11
1246.18417716342
 21
-58.88955512177699
 31
76.42742891163141
  0
LINE
  5
D0
  8
DEFAULT
 10
738.9999999999995
 20
-197.5000000000001
 30
59.19728174730151
 11
738.9999999999995
 21
-200.5000000000001
 31
59.19728174730151
  0
LINE
  5
D1
  8
DEFAULT
 10
738.9999999999995
 20
-200.5000000000001
 30
59.19728174730151
 11
754.9999999999998
 21
-200.5000000000001
 31
59.19728174730151
  0
LINE
  5
D2
  8
DEFAULT
 10
754.9999999999998
 20
-200.5000000000001
 30
59.19728174730151
 11
754.9999999999998
 21
-197.5000000000001
 31
59.19728174730151
  0
LINE
  5
D3
  8
DEFAULT
 10
754.9999999999998
 20
-197.5000000000001
 30
59.19728174730151
 11
738.9999999999995
 21
-197.5000000000001
 31
59.19728174730151
  0
LINE
  5
D4
  8
DEFAULT
 10
836.9999999999998
 20
-200.4999999999998
 30
59.19728174730156
 11
853.0
 21
-200.4999999999998
 31
59.19728174730156
  0
LINE
  5
D5
  8
DEFAULT
 10
853.0
 20
-200.4999999999998
 30
59.19728174730156
 11
853.0
 21
-197.4999999999998
 31
59.19728174730156
  0
LINE
  5
D6
  8
DEFAULT
 10
853.0
 20
-197.4999999999998
 30
59.19728174730156
 11
836.9999999999998
 21
-197.4999999999998
 31
59.19728174730156
  0
LINE
  5
D7
  8
DEFAULT
 10
836.9999999999998
 20
-197.4999999999998
 30
59.19728174730156
 11
836.9999999999998
 21
-200.4999999999998
 31
59.19728174730156
  0
LINE
  5
D8
  8
DEFAULT
 10
882.5
 20
-149.0000000000001
 30
59.19728174730156
 11
885.5
 21
-149.0000000000002
 31
59.19728174730156
  0
LINE
  5
D9
  8
DEFAULT
 10
885.5
 20
-149.0000000000002
 30
59.19728174730156
 11
885.5
 21
-132.9999999999998
 31
59.19728174730156
  0
LINE
  5
DA
  8
DEFAULT
 10
885.5
 20
-132.9999999999998
 30
59.19728174730156
 11
882.5
 21
-132.9999999999998
 31
59.19728174730156
  0
LINE
  5
DB
  8
DEFAULT
 10
882.5
 20
-132.9999999999998
 30
59.19728174730156
 11
882.5
 21
-149.0000000000001
 31
59.19728174730156
  0
LINE
  5
DC
  8
DEFAULT
 10
706.4999999999999
 20
-132.9999999999999
 30
59.19728174730151
 11
706.4999999999999
 21
-149.0000000000002
 31
59.1972817473015
  0
LINE
  5
DD
  8
DEFAULT
 10
706.4999999999999
 20
-149.0000000000002
 30
59.1972817473015
 11
709.4999999999999
 21
-149.0000000000002
 31
59.1972817473015
  0
LINE
  5
DE
  8
DEFAULT
 10
709.4999999999999
 20
-149.0000000000002
 30
59.1972817473015
 11
709.5
 21
-132.9999999999999
 31
59.19728174730151
  0
LINE
  5
DF
  8
DEFAULT
 10
709.5
 20
-132.9999999999999
 30
59.19728174730151
 11
706.4999999999999
 21
-132.9999999999999
 31
59.19728174730151
  0
LINE
  5
E0
  8
DEFAULT
 10
885.4999999999999
 20
-50.99999999999996
 30
59.19728174730156
 11
885.4999999999999
 21
-34.99999999999963
 31
59.19728174730156
  0
LINE
  5
E1
  8
DEFAULT
 10
885.4999999999999
 20
-34.99999999999963
 30
59.19728174730156
 11
882.4999999999999
 21
-34.99999999999962
 31
59.19728174730156
  0
LINE
  5
E2
  8
DEFAULT
 10
882.4999999999999
 20
-34.99999999999962
 30
59.19728174730156
 11
882.4999999999999
 21
-50.99999999999991
 31
59.19728174730156
  0
LINE
  5
E3
  8
DEFAULT
 10
882.4999999999999
 20
-50.99999999999991
 30
59.19728174730156
 11
885.4999999999999
 21
-50.99999999999996
 31
59.19728174730156
  0
LINE
  5
E4
  8
DEFAULT
 10
853.0
 20
13.49999999999978
 30
59.19728174730156
 11
853.0000000000001
 21
16.49999999999978
 31
59.19728174730156
  0
LINE
  5
E5
  8
DEFAULT
 10
853.0000000000001
 20
16.49999999999978
 30
59.19728174730156
 11
836.9999999999998
 21
16.49999999999976
 31
59.19728174730156
  0
LINE
  5
E6
  8
DEFAULT
 10
836.9999999999998
 20
16.49999999999976
 30
59.19728174730156
 11
836.9999999999998
 21
13.49999999999973
 31
59.19728174730156
  0
LINE
  5
E7
  8
DEFAULT
 10
836.9999999999998
 20
13.49999999999973
 30
59.19728174730156
 11
853.0
 21
13.49999999999978
 31
59.19728174730156
  0
LINE
  5
E8
  8
DEFAULT
 10
754.9999999999998
 20
16.50000000000014
 30
59.19728174730151
 11
738.9999999999995
 21
16.50000000000012
 31
59.19728174730151
  0
LINE
  5
E9
  8
DEFAULT
 10
738.9999999999995
 20
16.50000000000012
 30
59.19728174730151
 11
738.9999999999995
 21
13.50000000000009
 31
59.19728174730151
  0
LINE
  5
EA
  8
DEFAULT
 10
738.9999999999995
 20
13.50000000000009
 30
59.19728174730151
 11
754.9999999999998
 21
13.50000000000017
 31
59.19728174730151
  0
LINE
  5
EB
  8
DEFAULT
 10
754.9999999999998
 20
13.50000000000017
 30
59.19728174730151
 11
754.9999999999998
 21
16.50000000000014
 31
59.19728174730151
  0
LINE
  5
EC
  8
DEFAULT
 10
709.4999999999999
 20
-34.99999999999969
 30
59.19728174730151
 11
706.4999999999999
 21
-34.99999999999968
 31
59.19728174730151
  0
LINE
  5
ED
  8
DEFAULT
 10
706.4999999999999
 20
-34.99999999999968
 30
59.19728174730151
 11
706.4999999999999
 21
-51.00000000000002
 31
59.19728174730151
  0
LINE
  5
EE
  8
DEFAULT
 10
706.4999999999999
 20
-51.00000000000002
 30
59.19728174730151
 11
709.4999999999999
 21
-51.00000000000002
 31
59.19728174730151
  0
LINE
  5
EF
  8
DEFAULT
 10
709.4999999999999
 20
-51.00000000000002
 30
59.19728174730151
 11
709.4999999999999
 21
-34.99999999999969
 31
59.19728174730151
  0
LINE
  5
F0
  8
DEFAULT
 10
778.9999999999995
 20
-197.4999999999999
 30
59.19728174730151
 11
778.9999999999995
 21
-200.5
 31
59.19728174730151
  0
LINE
  5
F1
  8
DEFAULT
 10
778.9999999999995
 20
-200.5
 30
59.19728174730151
 11
812.9999999999998
 21
-200.4999999999999
 31
59.19728174730156
  0
LINE
  5
F2
  8
DEFAULT
 10
812.9999999999998
 20
-200.4999999999999
 30
59.19728174730156
 11
812.9999999999998
 21
-197.4999999999999
 31
59.19728174730156
  0
LINE
  5
F3
  8
DEFAULT
 10
812.9999999999998
 20
-197.4999999999999
 30
59.19728174730156
 11
778.9999999999995
 21
-197.4999999999999
 31
59.19728174730151
  0
LINE
  5
F4
  8
DEFAULT
 10
794.4999999999999
 20
-149.0
 30
59.19728174730151
 11
794.4999999999999
 21
-183.0000000000003
 31
59.19728174730151
  0
LINE
  5
F5
  8
DEFAULT
 10
794.4999999999999
 20
-183.0000000000003
 30
59.19728174730151
 11
797.4999999999999
 21
-183.0000000000003
 31
59.19728174730155
  0
LINE
  5
F6
  8
DEFAULT
 10
797.4999999999999
 20
-183.0000000000003
 30
59.19728174730155
 11
797.4999999999999
 21
-149.0
 31
59.19728174730156
  0
LINE
  5
F7
  8
DEFAULT
 10
797.4999999999999
 20
-149.0
 30
59.19728174730156
 11
794.4999999999999
 21
-149.0
 31
59.19728174730151
  0
LINE
  5
F8
  8
DEFAULT
 10
709.4999999999999
 20
-74.9999999999997
 30
59.19728174730151
 11
706.4999999999999
 21
-74.9999999999997
 31
59.19728174730151
  0
LINE
  5
F9
  8
DEFAULT
 10
706.4999999999999
 20
-74.9999999999997
 30
59.19728174730151
 11
706.4999999999999
 21
-109.0
 31
59.19728174730151
  0
LINE
  5
FA
  8
DEFAULT
 10
706.4999999999999
 20
-109.0
 30
59.19728174730151
 11
709.4999999999999
 21
-109.0000000000001
 31
59.1972817473015
  0
LINE
  5
FB
  8
DEFAULT
 10
709.4999999999999
 20
-109.0000000000001
 30
59.1972817473015
 11
709.4999999999999
 21
-74.9999999999997
 31
59.19728174730151
  0
LINE
  5
FC
  8
DEFAULT
 10
729.9999999999998
 20
-91.99999999999993
 30
59.19728174721143
 11
729.9999999999998
 21
-93.49999999999989
 31
59.19728174730151
  0
LINE
  5
FD
  8
DEFAULT
 10
729.9999999999998
 20
-93.49999999999989
 30
59.19728174730151
 11
764.0000000000001
 21
-93.49999999999983
 31
59.19728174730151
  0
LINE
  5
FE
  8
DEFAULT
 10
764.0000000000001
 20
-93.49999999999983
 30
59.19728174730151
 11
764.0000000000001
 21
-90.49999999999983
 31
59.19728174730151
  0
LINE
  5
FF
  8
DEFAULT
 10
764.0000000000001
 20
-90.49999999999983
 30
59.19728174730151
 11
729.9999999999998
 21
-90.49999999999987
 31
59.19728174730151
  0
LINE
  5
100
  8
DEFAULT
 10
729.9999999999998
 20
-90.49999999999987
 30
59.19728174730151
 11
729.9999999999998
 21
-91.99999999999993
 31
59.19728174721143
  0
LINE
  5
101
  8
DEFAULT
 10
794.5
 20
-74.99999999999969
 30
59.19728174730151
 11
794.4999999999999
 21
-109.0
 31
59.19728174730149
  0
LINE
  5
102
  8
DEFAULT
 10
794.4999999999999
 20
-109.0
 30
59.19728174730149
 11
797.5
 21
-109.0
 31
59.19728174730155
  0
LINE
  5
103
  8
DEFAULT
 10
797.5
 20
-109.0
 30
59.19728174730155
 11
797.4999999999999
 21
-74.99999999999969
 31
59.19728174730156
  0
LINE
  5
104
  8
DEFAULT
 10
797.4999999999999
 20
-74.99999999999969
 30
59.19728174730156
 11
794.5
 21
-74.99999999999969
 31
59.19728174730151
  0
LINE
  5
105
  8
DEFAULT
 10
862.0
 20
-93.49999999999994
 30
59.19728174730156
 11
862.0
 21
-90.49999999999994
 31
59.19728174730156
  0
LINE
  5
106
  8
DEFAULT
 10
862.0
 20
-90.49999999999994
 30
59.19728174730156
 11
827.9999999999997
 21
-90.49999999999997
 31
59.19728174730156
  0
LINE
  5
107
  8
DEFAULT
 10
827.9999999999997
 20
-90.49999999999997
 30
59.19728174730156
 11
827.9999999999997
 21
-93.49999999999997
 31
59.19728174730156
  0
LINE
  5
108
  8
DEFAULT
 10
827.9999999999997
 20
-93.49999999999997
 30
59.19728174730156
 11
862.0
 21
-93.49999999999994
 31
59.19728174730156
  0
LINE
  5
109
  8
DEFAULT
 10
885.4999999999999
 20
-92.0
 30
59.19728174714318
 11
885.4999999999999
 21
-74.99999999999964
 31
59.19728174730156
  0
LINE
  5
10A
  8
DEFAULT
 10
885.4999999999999
 20
-74.99999999999964
 30
59.19728174730156
 11
882.4999999999999
 21
-74.99999999999962
 31
59.19728174730156
  0
LINE
  5
10B
  8
DEFAULT
 10
882.4999999999999
 20
-74.99999999999962
 30
59.19728174730156
 11
882.4999999999999
 21
-109.0
 31
59.19728174730156
  0
LINE
  5
10C
  8
DEFAULT
 10
882.4999999999999
 20
-109.0
 30
59.19728174730156
 11
885.4999999999999
 21
-109.0
 31
59.19728174730156
  0
LINE
  5
10D
  8
DEFAULT
 10
885.4999999999999
 20
-109.0
 30
59.19728174730156
 11
885.4999999999999
 21
-92.0
 31
59.19728174714318
  0
LINE
  5
10E
  8
DEFAULT
 10
795.9999999999999
 20
-0.9999999999996776
 30
59.19728174727907
 11
794.4999999999999
 21
-0.9999999999996954
 31
59.19728174730151
  0
LINE
  5
10F
  8
DEFAULT
 10
794.4999999999999
 20
-0.9999999999996954
 30
59.19728174730151
 11
794.4999999999999
 21
-35.00000000000001
 31
59.19728174730151
  0
LINE
  5
110
  8
DEFAULT
 10
794.4999999999999
 20
-35.00000000000001
 30
59.19728174730151
 11
797.5
 21
-35.00000000000001
 31
59.19728174730156
  0
LINE
  5
111
  8
DEFAULT
 10
797.5
 20
-35.00000000000001
 30
59.19728174730156
 11
797.5
 21
-0.9999999999996678
 31
59.19728174730156
  0
LINE
  5
112
  8
DEFAULT
 10
797.5
 20
-0.9999999999996678
 30
59.19728174730156
 11
795.9999999999999
 21
-0.9999999999996776
 31
59.19728174727907
  0
LINE
  5
113
  8
DEFAULT
 10
795.9999999999999
 20
16.50000000000005
 30
59.19728174729671
 11
778.9999999999995
 21
16.50000000000001
 31
59.19728174730151
  0
LINE
  5
114
  8
DEFAULT
 10
778.9999999999995
 20
16.50000000000001
 30
59.19728174730151
 11
778.9999999999995
 21
13.50000000000004
 31
59.19728174730151
  0
LINE
  5
115
  8
DEFAULT
 10
778.9999999999995
 20
13.50000000000004
 30
59.19728174730151
 11
812.9999999999998
 21
13.50000000000007
 31
59.19728174730156
  0
LINE
  5
116
  8
DEFAULT
 10
812.9999999999998
 20
13.50000000000007
 30
59.19728174730156
 11
812.9999999999998
 21
16.50000000000008
 31
59.19728174730156
  0
LINE
  5
117
  8
DEFAULT
 10
812.9999999999998
 20
16.50000000000008
 30
59.19728174730156
 11
795.9999999999999
 21
16.50000000000005
 31
59.19728174729671
  0
ARC
  5
118
  8
DEFAULT
 10
-879.6153389004887
 20
-0.0262701311451679
 30
-59.19728174714123
 40
5.900000000000318
 50
0.0000000000014835
 51
64.92977205065549
210
0.0
220
0.0
230
-1.0
  0
LINE
  5
119
  8
DEFAULT
 10
877.1153389004884
 20
5.317885555209985
 30
59.19728174714123
 11
877.1153389004884
 21
6.273729868854984
 31
59.19728174714123
  0
ARC
  5
11A
  8
DEFAULT
 10
-879.6153389004885
 20
6.273729868854957
 30
-59.19728174714123
 40
2.500000000000114
 50
0.0000000000006107
 51
179.9999999999994
210
0.0
220
0.0
230
-1.0
  0
LINE
  5
11B
  8
DEFAULT
 10
882.1153389004884
 20
6.273729868854984
 30
59.19728174714123
 11
882.1153389004884
 21
5.317885555209985
 31
59.19728174714123
  0
ARC
  5
11C
  8
DEFAULT
 10
-879.6153389004883
 20
-0.0262701311450257
 30
-59.19728174714123
 40
5.900000000000098
 50
115.0702279493431
 51
0.0000000000000863
210
0.0
220
0.0
230
-1.0
  0
ARC
  5
11D
  8
DEFAULT
 10
879.6153389004883
 20
-183.973729868855
 30
59.19728174714123
 40
5.900000000000123
 50
295.070227949343
 51
180.0000000000003
  0
ARC
  5
11E
  8
DEFAULT
 10
879.615338900489
 20
-183.9737298688547
 30
59.19728174714127
 40
5.900000000000546
 50
180.0000000000028
 51
244.9297720506541
  0
LINE
  5
11F
  8
DEFAULT
 10
877.1153389004884
 20
-189.31788555521
 30
59.19728174714123
 11
877.1153389004884
 21
-190.273729868855
 31
59.19728174714123
  0
ARC
  5
120
  8
DEFAULT
 10
879.6153389004885
 20
-190.2737298688548
 30
59.19728174714123
 40
2.500000000000114
 50
180.0000000000026
 51
359.9999999999974
  0
LINE
  5
121
  8
DEFAULT
 10
882.1153389004884
 20
-190.273729868855
 30
59.19728174714123
 11
882.1153389004884
 21
-189.31788555521
 31
59.19728174714123
  0
ARC
  5
122
  8
DEFAULT
 10
712.3846610995116
 20
-0.0262701311448481
 30
59.1972817472213
 40
5.90000000000004
 50
115.0702279493433
 51
359.9999999999994
  0
ARC
  5
123
  8
DEFAULT
 10
712.3846610995113
 20
-0.0262701311449973
 30
59.1972817472213
 40
5.900000000000205
 50
0.0000000000009315
 51
64.92977205065621
  0
LINE
  5
124
  8
DEFAULT
 10
714.8846610995115
 20
5.317885555210099
 30
59.1972817472213
 11
714.8846610995115
 21
6.273729868855098
 31
59.19728174722128
  0
ARC
  5
125
  8
DEFAULT
 10
712.3846610995115
 20
6.273729868855071
 30
59.19728174722128
 40
2.5
 50
0.0000000000006107
 51
179.9999999999994
  0
LINE
  5
126
  8
DEFAULT
 10
709.8846610995115
 20
6.273729868855098
 30
59.19728174722128
 11
709.8846610995115
 21
5.317885555210099
 31
59.1972817472213
  0
ARC
  5
127
  8
DEFAULT
 10
-712.3846610995116
 20
-183.9737298688551
 30
-59.19728174722132
 40
5.899999999999864
 50
179.9999999999984
 51
244.9297720506582
210
0.0
220
0.0
230
-1.0
  0
LINE
  5
128
  8
DEFAULT
 10
714.8846610995115
 20
-189.3178855552099
 30
59.19728174722128
 11
714.8846610995115
 21
-190.2737298688548
 31
59.19728174722128
  0
ARC
  5
129
  8
DEFAULT
 10
-712.3846610995115
 20
-190.2737298688548
 30
-59.19728174722128
 40
2.5
 50
180.0
 51
0.0
210
0.0
220
0.0
230
-1.0
  0
LINE
  5
12A
  8
DEFAULT
 10
709.8846610995115
 20
-190.2737298688548
 30
59.19728174722128
 11
709.8846610995115
 21
-189.3178855552099
 31
59.19728174722128
  0
ARC
  5
12B
  8
DEFAULT
 10
-712.3846610995114
 20
-183.973729868855
 30
-59.19728174722128
 40
5.899999999999924
 50
295.0702279493415
 51
179.9999999999989
210
0.0
220
0.0
230
-1.0
  0
LINE
  5
12C
  8
DEFAULT
 10
889.2306778009768
 20
-92.0
 30
59.19728174714134
 11
889.2306778009768
 21
-205.273729868855
 31
59.19728174714132
  0
LINE
  5
12D
  8
DEFAULT
 10
889.2306778009768
 20
-205.273729868855
 30
59.19728174714132
 11
702.769322199023
 21
-205.273729868855
 31
59.19728174722136
  0
LINE
  5
12E
  8
DEFAULT
 10
702.769322199023
 20
-205.273729868855
 30
59.19728174722136
 11
702.7693221990231
 21
21.27372986885511
 31
59.19728174722136
  0
LINE
  5
12F
  8
DEFAULT
 10
702.7693221990231
 20
21.27372986885511
 30
59.19728174722136
 11
889.2306778009768
 21
21.27372986885499
 31
59.19728174714133
  0
LINE
  5
130
  8
DEFAULT
 10
889.2306778009768
 20
21.27372986885499
 30
59.19728174714133
 11
889.2306778009768
 21
-92.0
 31
59.19728174714134
  0
CIRCLE
  5
131
  8
DEFAULT
 10
879.6153389004884
 20
-8.227633977720313
 30
59.19728174714132
 40
1.000000000000063
  0
CIRCLE
  5
132
  8
DEFAULT
 10
879.6153389004885
 20
18.57372986885498
 30
59.19728174714131
 40
1.000000000000141
  0
CIRCLE
  5
133
  8
DEFAULT
 10
-879.6153389004884
 20
-175.7723660222796
 30
-59.19728174714131
 40
1.000000000000097
210
0.0
220
0.0
230
-1.0
  0
CIRCLE
  5
134
  8
DEFAULT
 10
-879.6153389004883
 20
-202.5737298688549
 30
-59.1972817471413
 40
1.000000000000009
210
0.0
220
0.0
230
-1.0
  0
CIRCLE
  5
135
  8
DEFAULT
 10
-712.3846610995116
 20
-8.227633977720252
 30
-59.19728174722137
 40
1.000000000000009
210
0.0
220
0.0
230
-1.0
  0
CIRCLE
  5
136
  8
DEFAULT
 10
-712.3846610995115
 20
18.57372986885504
 30
-59.19728174722136
 40
1.00000000000009
210
0.0
220
0.0
230
-1.0
  0
CIRCLE
  5
137
  8
DEFAULT
 10
712.3846610995115
 20
-175.7723660222796
 30
59.19728174722136
 40
1.00000000000006
  0
CIRCLE
  5
138
  8
DEFAULT
 10
712.3846610995115
 20
-202.5737298688548
 30
59.19728174722135
 40
1.000000000000078
  0
LINE
  5
139
  8
DEFAULT
 10
510.0
 20
-203.0
 30
88.19728174730155
 11
510.0
 21
21.34519162545492
 31
88.19728174730155
  0
LINE
  5
13A
  8
DEFAULT
 10
510.0
 20
21.34519162545492
 30
88.19728174730155
 11
697.9999999999995
 21
21.34519162545492
 31
88.19728174730155
  0
LINE
  5
13B
  8
DEFAULT
 10
697.9999999999995
 20
21.34519162545492
 30
88.19728174730155
 11
697.9999999999995
 21
-203.0
 31
88.19728174730155
  0
LINE
  5
13C
  8
DEFAULT
 10
697.9999999999995
 20
-203.0
 30
88.19728174730155
 11
510.0
 21
-203.0
 31
88.19728174730155
  0
LINE
  5
13D
  8
DEFAULT
 10
602.5000000000009
 20
-32.99999999999999
 30
88.19728174730155
 11
605.5000000000009
 21
-32.99999999999999
 31
88.19728174730155
  0
LINE
  5
13E
  8
DEFAULT
 10
605.5000000000009
 20
-32.99999999999999
 30
88.19728174730155
 11
605.5000000000009
 21
1.000000000000341
 31
88.19728174730156
  0
LINE
  5
13F
  8
DEFAULT
 10
605.5000000000009
 20
1.000000000000341
 30
88.19728174730156
 11
602.5000000000009
 21
1.00000000000029
 31
88.19728174730155
  0
LINE
  5
140
  8
DEFAULT
 10
602.5000000000009
 20
1.00000000000029
 30
88.19728174730155
 11
602.5000000000009
 21
-32.99999999999999
 31
88.19728174730155
  0
LINE
  5
141
  8
DEFAULT
 10
602.5000000000009
 20
-72.99999999999969
 30
88.19728174730155
 11
602.5000000000009
 21
-107.0
 31
88.19728174730155
  0
LINE
  5
142
  8
DEFAULT
 10
602.5000000000009
 20
-107.0
 30
88.19728174730155
 11
605.5000000000009
 21
-107.0
 31
88.19728174730155
  0
LINE
  5
143
  8
DEFAULT
 10
605.5000000000009
 20
-107.0
 30
88.19728174730155
 11
605.5000000000009
 21
-72.99999999999969
 31
88.19728174730155
  0
LINE
  5
144
  8
DEFAULT
 10
605.5000000000009
 20
-72.99999999999969
 30
88.19728174730155
 11
602.5000000000009
 21
-72.99999999999969
 31
88.19728174730155
  0
LINE
  5
145
  8
DEFAULT
 10
602.5000000000009
 20
-147.0
 30
88.19728174730155
 11
602.5000000000009
 21
-181.0000000000003
 31
88.19728174730155
  0
LINE
  5
146
  8
DEFAULT
 10
602.5000000000009
 20
-181.0000000000003
 30
88.19728174730155
 11
605.5000000000009
 21
-181.0000000000003
 31
88.19728174730155
  0
LINE
  5
147
  8
DEFAULT
 10
605.5000000000009
 20
-181.0000000000003
 30
88.19728174730155
 11
605.5000000000009
 21
-147.0
 31
88.19728174730155
  0
LINE
  5
148
  8
DEFAULT
 10
605.5000000000009
 20
-147.0
 30
88.19728174730155
 11
602.5000000000009
 21
-147.0
 31
88.19728174730155
  0
LINE
  5
149
  8
DEFAULT
 10
514.2829160514179
 20
-71.70166591878734
 30
88.19728174730155
 11
514.2829160514179
 21
-46.49085313878393
 31
88.19728174730156
  0
LINE
  5
14A
  8
DEFAULT
 10
514.2829160514179
 20
-46.49085313878393
 30
88.19728174730156
 11
517.284084547437
 21
-46.4908531387839
 31
88.19728174730153
  0
LINE
  5
14B
  8
DEFAULT
 10
517.284084547437
 20
-46.4908531387839
 30
88.19728174730153
 11
517.284084547437
 21
-71.70166591878737
 31
88.19728174730153
  0
LINE
  5
14C
  8
DEFAULT
 10
517.284084547437
 20
-71.70166591878737
 30
88.19728174730153
 11
514.2829160514179
 21
-71.70166591878734
 31
88.19728174730155
  0
LINE
  5
14D
  8
DEFAULT
 10
517.284084547437
 20
-108.2651091930133
 30
88.19728174730153
 11
517.284084547437
 21
-133.5091468612579
 31
88.19728174730153
  0
LINE
  5
14E
  8
DEFAULT
 10
517.284084547437
 20
-133.5091468612579
 30
88.19728174730153
 11
514.2829160514179
 21
-133.5091468612579
 31
88.19728174730155
  0
LINE
  5
14F
  8
DEFAULT
 10
514.2829160514179
 20
-133.5091468612579
 30
88.19728174730155
 11
514.2829160514179
 21
-108.2651091930134
 31
88.19728174730155
  0
LINE
  5
150
  8
DEFAULT
 10
514.2829160514179
 20
-108.2651091930134
 30
88.19728174730155
 11
517.284084547437
 21
-108.2651091930133
 31
88.19728174730153
  0
LINE
  5
151
  8
DEFAULT
 10
517.284084547437
 20
-154.0
 30
88.19728174730156
 11
514.2829160514179
 21
-154.0
 31
88.19728174730153
  0
LINE
  5
152
  8
DEFAULT
 10
514.2829160514179
 20
-154.0
 30
88.19728174730153
 11
514.2829160514179
 21
-171.073729868918
 31
88.19728174730155
  0
LINE
  5
153
  8
DEFAULT
 10
514.2829160514179
 20
-171.073729868918
 30
88.19728174730155
 11
517.284084547437
 21
-171.073729868918
 31
88.19728174730156
  0
LINE
  5
154
  8
DEFAULT
 10
517.284084547437
 20
-171.073729868918
 30
88.19728174730156
 11
517.284084547437
 21
-154.0
 31
88.19728174730156
  0
LINE
  5
155
  8
DEFAULT
 10
514.2829160514179
 20
-26.00000000004184
 30
88.19728174730155
 11
517.284084547437
 21
-26.00000000004184
 31
88.19728174730156
  0
LINE
  5
156
  8
DEFAULT
 10
517.284084547437
 20
-26.00000000004184
 30
88.19728174730156
 11
517.284084547437
 21
-8.926270131123866
 31
88.19728174730155
  0
LINE
  5
157
  8
DEFAULT
 10
517.284084547437
 20
-8.926270131123866
 30
88.19728174730155
 11
514.2829160514179
 21
-8.926270131123854
 31
88.19728174730155
  0
LINE
  5
158
  8
DEFAULT
 10
514.2829160514179
 20
-8.926270131123854
 30
88.19728174730155
 11
514.2829160514179
 21
-26.00000000004184
 31
88.19728174730155
  0
LINE
  5
159
  8
DEFAULT
 10
690.7159154525626
 20
-46.4908531387839
 30
88.19728174730153
 11
693.7170839485816
 21
-46.49085313878393
 31
88.19728174730156
  0
LINE
  5
15A
  8
DEFAULT
 10
693.7170839485816
 20
-46.49085313878393
 30
88.19728174730156
 11
693.7170839485816
 21
-71.70166591878734
 31
88.19728174730155
  0
LINE
  5
15B
  8
DEFAULT
 10
693.7170839485816
 20
-71.70166591878734
 30
88.19728174730155
 11
690.7159154525626
 21
-71.70166591878737
 31
88.19728174730156
  0
LINE
  5
15C
  8
DEFAULT
 10
690.7159154525626
 20
-71.70166591878737
 30
88.19728174730156
 11
690.7159154525626
 21
-46.4908531387839
 31
88.19728174730153
  0
LINE
  5
15D
  8
DEFAULT
 10
693.7170839485816
 20
-133.5091468612579
 30
88.19728174730155
 11
690.7159154525626
 21
-133.5091468612579
 31
88.19728174730156
  0
LINE
  5
15E
  8
DEFAULT
 10
690.7159154525626
 20
-133.5091468612579
 30
88.19728174730156
 11
690.7159154525626
 21
-108.2651091930133
 31
88.19728174730153
  0
LINE
  5
15F
  8
DEFAULT
 10
690.7159154525626
 20
-108.2651091930133
 30
88.19728174730153
 11
693.7170839485816
 21
-108.2651091930134
 31
88.19728174730155
  0
LINE
  5
160
  8
DEFAULT
 10
693.7170839485816
 20
-108.2651091930134
 30
88.19728174730155
 11
693.7170839485816
 21
-133.5091468612579
 31
88.19728174730155
  0
LINE
  5
161
  8
DEFAULT
 10
693.7170839485816
 20
-171.073729868918
 30
88.19728174730155
 11
690.7159154525626
 21
-171.073729868918
 31
88.19728174730153
  0
LINE
  5
162
  8
DEFAULT
 10
690.7159154525626
 20
-171.073729868918
 30
88.19728174730153
 11
690.7159154525626
 21
-154.0
 31
88.19728174730156
  0
LINE
  5
163
  8
DEFAULT
 10
690.7159154525626
 20
-154.0
 30
88.19728174730156
 11
693.7170839485816
 21
-154.0
 31
88.19728174730153
  0
LINE
  5
164
  8
DEFAULT
 10
693.7170839485816
 20
-154.0
 30
88.19728174730153
 11
693.7170839485816
 21
-171.073729868918
 31
88.19728174730155
  0
LINE
  5
165
  8
DEFAULT
 10
690.7159154525626
 20
-8.926270131123854
 30
88.19728174730155
 11
693.7170839485816
 21
-8.926270131123854
 31
88.19728174730156
  0
LINE
  5
166
  8
DEFAULT
 10
693.7170839485816
 20
-8.926270131123854
 30
88.19728174730156
 11
693.7170839485816
 21
-26.00000000004184
 31
88.19728174730156
  0
LINE
  5
167
  8
DEFAULT
 10
693.7170839485816
 20
-26.00000000004184
 30
88.19728174730156
 11
690.7159154525626
 21
-26.00000000004184
 31
88.19728174730156
  0
LINE
  5
168
  8
DEFAULT
 10
690.7159154525626
 20
-26.00000000004184
 30
88.19728174730156
 11
690.7159154525626
 21
-8.926270131123854
 31
88.19728174730155
  0
LINE
  5
169
  8
DEFAULT
 10
592.9999999999998
 20
18.19038325090963
 30
88.19728174730156
 11
563.9999999999997
 21
18.19038325090963
 31
88.19728174730156
  0
LINE
  5
16A
  8
DEFAULT
 10
563.9999999999997
 20
18.19038325090963
 30
88.19728174730156
 11
563.9999999999997
 21
15.49999999999978
 31
88.19728174730153
  0
LINE
  5
16B
  8
DEFAULT
 10
563.9999999999997
 20
15.49999999999978
 30
88.19728174730153
 11
592.9999999999999
 21
15.49999999999978
 31
88.19728174730153
  0
LINE
  5
16C
  8
DEFAULT
 10
592.9999999999999
 20
15.49999999999978
 30
88.19728174730153
 11
592.9999999999998
 21
18.19038325090963
 31
88.19728174730156
  0
LINE
  5
16D
  8
DEFAULT
 10
665.9999999999997
 20
18.19038325090963
 30
88.19728174730153
 11
665.9999999999997
 21
15.49999999999978
 31
88.19728174730153
  0
LINE
  5
16E
  8
DEFAULT
 10
665.9999999999997
 20
15.49999999999978
 30
88.19728174730153
 11
681.6362331409605
 21
15.49999999999978
 31
88.19728174730155
  0
LINE
  5
16F
  8
DEFAULT
 10
681.6362331409605
 20
15.49999999999978
 30
88.19728174730155
 11
681.6362331409605
 21
18.19038325090963
 31
88.19728174730155
  0
LINE
  5
170
  8
DEFAULT
 10
681.6362331409605
 20
18.19038325090963
 30
88.19728174730155
 11
665.9999999999997
 21
18.19038325090963
 31
88.19728174730153
  0
LINE
  5
171
  8
DEFAULT
 10
643.9999999999998
 20
18.19038325090963
 30
88.19728174730156
 11
614.9999999999997
 21
18.19038325090963
 31
88.19728174730156
  0
LINE
  5
172
  8
DEFAULT
 10
614.9999999999997
 20
18.19038325090963
 30
88.19728174730156
 11
614.9999999999997
 21
15.49999999999978
 31
88.19728174730153
  0
LINE
  5
173
  8
DEFAULT
 10
614.9999999999997
 20
15.49999999999978
 30
88.19728174730153
 11
643.9999999999998
 21
15.49999999999978
 31
88.19728174730155
  0
LINE
  5
174
  8
DEFAULT
 10
643.9999999999998
 20
15.49999999999978
 30
88.19728174730155
 11
643.9999999999998
 21
18.19038325090963
 31
88.19728174730156
  0
LINE
  5
175
  8
DEFAULT
 10
526.3637668590391
 20
15.49999999999978
 30
88.19728174730155
 11
541.9999999999999
 21
15.49999999999978
 31
88.19728174730153
  0
LINE
  5
176
  8
DEFAULT
 10
541.9999999999999
 20
15.49999999999978
 30
88.19728174730153
 11
541.9999999999999
 21
18.19038325090963
 31
88.19728174730156
  0
LINE
  5
177
  8
DEFAULT
 10
541.9999999999999
 20
18.19038325090963
 30
88.19728174730156
 11
526.3637668590391
 21
18.19038325090963
 31
88.19728174730155
  0
LINE
  5
178
  8
DEFAULT
 10
526.3637668590391
 20
18.19038325090963
 30
88.19728174730155
 11
526.3637668590391
 21
15.49999999999978
 31
88.19728174730155
  0
LINE
  5
179
  8
DEFAULT
 10
592.9999999999998
 20
-195.8096167490899
 30
88.19728174730156
 11
563.9999999999997
 21
-195.8096167490899
 31
88.19728174730156
  0
LINE
  5
17A
  8
DEFAULT
 10
563.9999999999997
 20
-195.8096167490899
 30
88.19728174730156
 11
563.9999999999997
 21
-198.4999999999998
 31
88.19728174730153
  0
LINE
  5
17B
  8
DEFAULT
 10
563.9999999999997
 20
-198.4999999999998
 30
88.19728174730153
 11
592.9999999999999
 21
-198.4999999999998
 31
88.19728174730153
  0
LINE
  5
17C
  8
DEFAULT
 10
592.9999999999999
 20
-198.4999999999998
 30
88.19728174730153
 11
592.9999999999998
 21
-195.8096167490899
 31
88.19728174730156
  0
LINE
  5
17D
  8
DEFAULT
 10
665.9999999999995
 20
-195.8096167490899
 30
88.19728174730153
 11
665.9999999999995
 21
-198.4999999999998
 31
88.19728174730153
  0
LINE
  5
17E
  8
DEFAULT
 10
665.9999999999995
 20
-198.4999999999998
 30
88.19728174730153
 11
681.6362331409605
 21
-198.4999999999998
 31
88.19728174730155
  0
LINE
  5
17F
  8
DEFAULT
 10
681.6362331409605
 20
-198.4999999999998
 30
88.19728174730155
 11
681.6362331409605
 21
-195.8096167490899
 31
88.19728174730155
  0
LINE
  5
180
  8
DEFAULT
 10
681.6362331409605
 20
-195.8096167490899
 30
88.19728174730155
 11
665.9999999999995
 21
-195.8096167490899
 31
88.19728174730153
  0
LINE
  5
181
  8
DEFAULT
 10
643.9999999999998
 20
-195.8096167490899
 30
88.19728174730156
 11
614.9999999999997
 21
-195.8096167490899
 31
88.19728174730156
  0
LINE
  5
182
  8
DEFAULT
 10
614.9999999999997
 20
-195.8096167490899
 30
88.19728174730156
 11
614.9999999999997
 21
-198.4999999999998
 31
88.19728174730153
  0
LINE
  5
183
  8
DEFAULT
 10
614.9999999999997
 20
-198.4999999999998
 30
88.19728174730153
 11
643.9999999999998
 21
-198.4999999999998
 31
88.19728174730155
  0
LINE
  5
184
  8
DEFAULT
 10
643.9999999999998
 20
-198.4999999999998
 30
88.19728174730155
 11
643.9999999999998
 21
-195.8096167490899
 31
88.19728174730156
  0
LINE
  5
185
  8
DEFAULT
 10
526.3637668590391
 20
-198.4999999999998
 30
88.19728174730155
 11
541.9999999999999
 21
-198.4999999999998
 31
88.19728174730153
  0
LINE
  5
186
  8
DEFAULT
 10
541.9999999999999
 20
-198.4999999999998
 30
88.19728174730153
 11
541.9999999999999
 21
-195.8096167490899
 31
88.19728174730156
  0
LINE
  5
187
  8
DEFAULT
 10
541.9999999999999
 20
-195.8096167490899
 30
88.19728174730156
 11
526.3637668590391
 21
-195.8096167490899
 31
88.19728174730155
  0
LINE
  5
188
  8
DEFAULT
 10
526.3637668590391
 20
-195.8096167490899
 30
88.19728174730155
 11
526.3637668590391
 21
-198.4999999999998
 31
88.19728174730155
  0
LINE
  5
189
  8
DEFAULT
 10
930.9999999999995
 20
-197.5000000000001
 30
59.19728174730151
 11
930.9999999999995
 21
-200.5000000000001
 31
59.19728174730151
  0
LINE
  5
18A
  8
DEFAULT
 10
930.9999999999995
 20
-200.5000000000001
 30
59.19728174730151
 11
946.9999999999998
 21
-200.5000000000001
 31
59.19728174730151
  0
LINE
  5
18B
  8
DEFAULT
 10
946.9999999999998
 20
-200.5000000000001
 30
59.19728174730151
 11
946.9999999999998
 21
-197.5000000000001
 31
59.19728174730151
  0
LINE
  5
18C
  8
DEFAULT
 10
946.9999999999998
 20
-197.5000000000001
 30
59.19728174730151
 11
930.9999999999995
 21
-197.5000000000001
 31
59.19728174730151
  0
LINE
  5
18D
  8
DEFAULT
 10
1029.0
 20
-200.4999999999998
 30
59.19728174730156
 11
1045.0
 21
-200.4999999999998
 31
59.19728174730156
  0
LINE
  5
18E
  8
DEFAULT
 10
1045.0
 20
-200.4999999999998
 30
59.19728174730156
 11
1045.0
 21
-197.4999999999998
 31
59.19728174730156
  0
LINE
  5
18F
  8
DEFAULT
 10
1045.0
 20
-197.4999999999998
 30
59.19728174730156
 11
1029.0
 21
-197.4999999999998
 31
59.19728174730156
  0
LINE
  5
190
  8
DEFAULT
 10
1029.0
 20
-197.4999999999998
 30
59.19728174730156
 11
1029.0
 21
-200.4999999999998
 31
59.19728174730156
  0
LINE
  5
191
  8
DEFAULT
 10
1074.5
 20
-149.0000000000001
 30
59.19728174730156
 11
1077.5
 21
-149.0000000000002
 31
59.19728174730156
  0
LINE
  5
192
  8
DEFAULT
 10
1077.5
 20
-149.0000000000002
 30
59.19728174730156
 11
1077.5
 21
-132.9999999999998
 31
59.19728174730156
  0
LINE
  5
193
  8
DEFAULT
 10
1077.5
 20
-132.9999999999998
 30
59.19728174730156
 11
1074.5
 21
-132.9999999999998
 31
59.19728174730156
  0
LINE
  5
194
  8
DEFAULT
 10
1074.5
 20
-132.9999999999998
 30
59.19728174730156
 11
1074.5
 21
-149.0000000000001
 31
59.19728174730156
  0
LINE
  5
195
  8
DEFAULT
 10
898.4999999999999
 20
-132.9999999999999
 30
59.19728174730151
 11
898.4999999999999
 21
-149.0000000000002
 31
59.1972817473015
  0
LINE
  5
196
  8
DEFAULT
 10
898.4999999999999
 20
-149.0000000000002
 30
59.1972817473015
 11
901.4999999999999
 21
-149.0000000000002
 31
59.1972817473015
  0
LINE
  5
197
  8
DEFAULT
 10
901.4999999999999
 20
-149.0000000000002
 30
59.1972817473015
 11
901.5
 21
-132.9999999999999
 31
59.19728174730151
  0
LINE
  5
198
  8
DEFAULT
 10
901.5
 20
-132.9999999999999
 30
59.19728174730151
 11
898.4999999999999
 21
-132.9999999999999
 31
59.19728174730151
  0
LINE
  5
199
  8
DEFAULT
 10
1077.5
 20
-50.99999999999996
 30
59.19728174730156
 11
1077.5
 21
-34.99999999999963
 31
59.19728174730156
  0
LINE
  5
19A
  8
DEFAULT
 10
1077.5
 20
-34.99999999999963
 30
59.19728174730156
 11
1074.5
 21
-34.99999999999962
 31
59.19728174730156
  0
LINE
  5
19B
  8
DEFAULT
 10
1074.5
 20
-34.99999999999962
 30
59.19728174730156
 11
1074.5
 21
-50.99999999999991
 31
59.19728174730156
  0
LINE
  5
19C
  8
DEFAULT
 10
1074.5
 20
-50.99999999999991
 30
59.19728174730156
 11
1077.5
 21
-50.99999999999996
 31
59.19728174730156
  0
LINE
  5
19D
  8
DEFAULT
 10
1045.0
 20
13.49999999999978
 30
59.19728174730156
 11
1045.0
 21
16.49999999999978
 31
59.19728174730156
  0
LINE
  5
19E
  8
DEFAULT
 10
1045.0
 20
16.49999999999978
 30
59.19728174730156
 11
1029.0
 21
16.49999999999976
 31
59.19728174730156
  0
LINE
  5
19F
  8
DEFAULT
 10
1029.0
 20
16.49999999999976
 30
59.19728174730156
 11
1029.0
 21
13.49999999999973
 31
59.19728174730156
  0
LINE
  5
1A0
  8
DEFAULT
 10
1029.0
 20
13.49999999999973
 30
59.19728174730156
 11
1045.0
 21
13.49999999999978
 31
59.19728174730156
  0
LINE
  5
1A1
  8
DEFAULT
 10
946.9999999999998
 20
16.50000000000014
 30
59.19728174730151
 11
930.9999999999995
 21
16.50000000000012
 31
59.19728174730151
  0
LINE
  5
1A2
  8
DEFAULT
 10
930.9999999999995
 20
16.50000000000012
 30
59.19728174730151
 11
930.9999999999995
 21
13.50000000000009
 31
59.19728174730151
  0
LINE
  5
1A3
  8
DEFAULT
 10
930.9999999999995
 20
13.50000000000009
 30
59.19728174730151
 11
946.9999999999998
 21
13.50000000000017
 31
59.19728174730151
  0
LINE
  5
1A4
  8
DEFAULT
 10
946.9999999999998
 20
13.50000000000017
 30
59.19728174730151
 11
946.9999999999998
 21
16.50000000000014
 31
59.19728174730151
  0
LINE
  5
1A5
  8
DEFAULT
 10
901.4999999999999
 20
-34.99999999999969
 30
59.19728174730151
 11
898.4999999999999
 21
-34.99999999999968
 31
59.19728174730151
  0
LINE
  5
1A6
  8
DEFAULT
 10
898.4999999999999
 20
-34.99999999999968
 30
59.19728174730151
 11
898.4999999999999
 21
-51.00000000000002
 31
59.19728174730151
  0
LINE
  5
1A7
  8
DEFAULT
 10
898.4999999999999
 20
-51.00000000000002
 30
59.19728174730151
 11
901.4999999999999
 21
-51.00000000000002
 31
59.19728174730151
  0
LINE
  5
1A8
  8
DEFAULT
 10
901.4999999999999
 20
-51.00000000000002
 30
59.19728174730151
 11
901.4999999999999
 21
-34.99999999999969
 31
59.19728174730151
  0
LINE
  5
1A9
  8
DEFAULT
 10
970.9999999999995
 20
-197.4999999999999
 30
59.19728174730151
 11
970.9999999999995
 21
-200.5
 31
59.19728174730151
  0
LINE
  5
1AA
  8
DEFAULT
 10
970.9999999999995
 20
-200.5
 30
59.19728174730151
 11
1005.0
 21
-200.4999999999999
 31
59.19728174730156
  0
LINE
  5
1AB
  8
DEFAULT
 10
1005.0
 20
-200.4999999999999
 30
59.19728174730156
 11
1005.0
 21
-197.4999999999999
 31
59.19728174730156
  0
LINE
  5
1AC
  8
DEFAULT
 10
1005.0
 20
-197.4999999999999
 30
59.19728174730156
 11
970.9999999999995
 21
-197.4999999999999
 31
59.19728174730151
  0
LINE
  5
1AD
  8
DEFAULT
 10
986.4999999999999
 20
-149.0
 30
59.19728174730151
 11
986.4999999999999
 21
-183.0000000000003
 31
59.19728174730151
  0
LINE
  5
1AE
  8
DEFAULT
 10
986.4999999999999
 20
-183.0000000000003
 30
59.19728174730151
 11
989.4999999999999
 21
-183.0000000000003
 31
59.19728174730155
  0
LINE
  5
1AF
  8
DEFAULT
 10
989.4999999999999
 20
-183.0000000000003
 30
59.19728174730155
 11
989.4999999999999
 21
-149.0
 31
59.19728174730156
  0
LINE
  5
1B0
  8
DEFAULT
 10
989.4999999999999
 20
-149.0
 30
59.19728174730156
 11
986.4999999999999
 21
-149.0
 31
59.19728174730151
  0
LINE
  5
1B1
  8
DEFAULT
 10
901.4999999999999
 20
-74.9999999999997
 30
59.19728174730151
 11
898.4999999999999
 21
-74.9999999999997
 31
59.19728174730151
  0
LINE
  5
1B2
  8
DEFAULT
 10
898.4999999999999
 20
-74.9999999999997
 30
59.19728174730151
 11
898.4999999999999
 21
-109.0
 31
59.19728174730151
  0
LINE
  5
1B3
  8
DEFAULT
 10
898.4999999999999
 20
-109.0
 30
59.19728174730151
 11
901.4999999999999
 21
-109.0000000000001
 31
59.1972817473015
  0
LINE
  5
1B4
  8
DEFAULT
 10
901.4999999999999
 20
-109.0000000000001
 30
59.1972817473015
 11
901.4999999999999
 21
-74.9999999999997
 31
59.19728174730151
  0
LINE
  5
1B5
  8
DEFAULT
 10
921.9999999999998
 20
-91.99999999999993
 30
59.19728174721143
 11
921.9999999999998
 21
-93.49999999999989
 31
59.19728174730151
  0
LINE
  5
1B6
  8
DEFAULT
 10
921.9999999999998
 20
-93.49999999999989
 30
59.19728174730151
 11
956.0000000000001
 21
-93.49999999999983
 31
59.19728174730151
  0
LINE
  5
1B7
  8
DEFAULT
 10
956.0000000000001
 20
-93.49999999999983
 30
59.19728174730151
 11
956.0000000000001
 21
-90.49999999999983
 31
59.19728174730151
  0
LINE
  5
1B8
  8
DEFAULT
 10
956.0000000000001
 20
-90.49999999999983
 30
59.19728174730151
 11
921.9999999999998
 21
-90.49999999999987
 31
59.19728174730151
  0
LINE
  5
1B9
  8
DEFAULT
 10
921.9999999999998
 20
-90.49999999999987
 30
59.19728174730151
 11
921.9999999999998
 21
-91.99999999999993
 31
59.19728174721143
  0
LINE
  5
1BA
  8
DEFAULT
 10
986.5
 20
-74.99999999999969
 30
59.19728174730151
 11
986.4999999999999
 21
-109.0
 31
59.19728174730149
  0
LINE
  5
1BB
  8
DEFAULT
 10
986.4999999999999
 20
-109.0
 30
59.19728174730149
 11
989.5
 21
-109.0
 31
59.19728174730155
  0
LINE
  5
1BC
  8
DEFAULT
 10
989.5
 20
-109.0
 30
59.19728174730155
 11
989.4999999999999
 21
-74.99999999999969
 31
59.19728174730156
  0
LINE
  5
1BD
  8
DEFAULT
 10
989.4999999999999
 20
-74.99999999999969
 30
59.19728174730156
 11
986.5
 21
-74.99999999999969
 31
59.19728174730151
  0
LINE
  5
1BE
  8
DEFAULT
 10
1054.0
 20
-93.49999999999994
 30
59.19728174730156
 11
1054.0
 21
-90.49999999999994
 31
59.19728174730156
  0
LINE
  5
1BF
  8
DEFAULT
 10
1054.0
 20
-90.49999999999994
 30
59.19728174730156
 11
1020.0
 21
-90.49999999999997
 31
59.19728174730156
  0
LINE
  5
1C0
  8
DEFAULT
 10
1020.0
 20
-90.49999999999997
 30
59.19728174730156
 11
1020.0
 21
-93.49999999999997
 31
59.19728174730156
  0
LINE
  5
1C1
  8
DEFAULT
 10
1020.0
 20
-93.49999999999997
 30
59.19728174730156
 11
1054.0
 21
-93.49999999999994
 31
59.19728174730156
  0
LINE
  5
1C2
  8
DEFAULT
 10
1077.5
 20
-92.0
 30
59.19728174714318
 11
1077.5
 21
-74.99999999999964
 31
59.19728174730156
  0
LINE
  5
1C3
  8
DEFAULT
 10
1077.5
 20
-74.99999999999964
 30
59.19728174730156
 11
1074.5
 21
-74.99999999999962
 31
59.19728174730156
  0
LINE
  5
1C4
  8
DEFAULT
 10
1074.5
 20
-74.99999999999962
 30
59.19728174730156
 11
1074.5
 21
-109.0
 31
59.19728174730156
  0
LINE
  5
1C5
  8
DEFAULT
 10
1074.5
 20
-109.0
 30
59.19728174730156
 11
1077.5
 21
-109.0
 31
59.19728174730156
  0
LINE
  5
1C6
  8
DEFAULT
 10
1077.5
 20
-109.0
 30
59.19728174730156
 11
1077.5
 21
-92.0
 31
59.19728174714318
  0
LINE
  5
1C7
  8
DEFAULT
 10
987.9999999999999
 20
-0.9999999999996776
 30
59.19728174727907
 11
986.4999999999999
 21
-0.9999999999996954
 31
59.19728174730151
  0
LINE
  5
1C8
  8
DEFAULT
 10
986.4999999999999
 20
-0.9999999999996954
 30
59.19728174730151
 11
986.4999999999999
 21
-35.00000000000001
 31
59.19728174730151
  0
LINE
  5
1C9
  8
DEFAULT
 10
986.4999999999999
 20
-35.00000000000001
 30
59.19728174730151
 11
989.5
 21
-35.00000000000001
 31
59.19728174730156
  0
LINE
  5
1CA
  8
DEFAULT
 10
989.5
 20
-35.00000000000001
 30
59.19728174730156
 11
989.5
 21
-0.9999999999996678
 31
59.19728174730156
  0
LINE
  5
1CB
  8
DEFAULT
 10
989.5
 20
-0.9999999999996678
 30
59.19728174730156
 11
987.9999999999999
 21
-0.9999999999996776
 31
59.19728174727907
  0
LINE
  5
1CC
  8
DEFAULT
 10
987.9999999999999
 20
16.50000000000005
 30
59.19728174729671
 11
970.9999999999995
 21
16.50000000000001
 31
59.19728174730151
  0
LINE
  5
1CD
  8
DEFAULT
 10
970.9999999999995
 20
16.50000000000001
 30
59.19728174730151
 11
970.9999999999995
 21
13.50000000000004
 31
59.19728174730151
  0
LINE
  5
1CE
  8
DEFAULT
 10
970.9999999999995
 20
13.50000000000004
 30
59.19728174730151
 11
1005.0
 21
13.50000000000007
 31
59.19728174730156
  0
LINE
  5
1CF
  8
DEFAULT
 10
1005.0
 20
13.50000000000007
 30
59.19728174730156
 11
1005.0
 21
16.50000000000008
 31
59.19728174730156
  0
LINE
  5
1D0
  8
DEFAULT
 10
1005.0
 20
16.50000000000008
 30
59.19728174730156
 11
987.9999999999999
 21
16.50000000000005
 31
59.19728174729671
  0
ARC
  5
1D1
  8
DEFAULT
 10
-1071.615338900489
 20
-0.0262701311455089
 30
-59.19728174714123
 40
5.900000000000773
 50
0.0000000000047956
 51
64.9297720506539
210
0.0
220
0.0
230
-1.0
  0
LINE
  5
1D2
  8
DEFAULT
 10
1069.115338900488
 20
5.317885555209985
 30
59.19728174714123
 11
1069.115338900488
 21
6.273729868854984
 31
59.19728174714123
  0
ARC
  5
1D3
  8
DEFAULT
 10
-1071.615338900488
 20
6.273729868855071
 30
-59.19728174714123
 40
2.5
 50
359.999999999998
 51
180.000000000002
210
0.0
220
0.0
230
-1.0
  0
LINE
  5
1D4
  8
DEFAULT
 10
1074.115338900488
 20
6.273729868854984
 30
59.19728174714123
 11
1074.115338900488
 21
5.317885555209985
 31
59.19728174714123
  0
ARC
  5
1D5
  8
DEFAULT
 10
-1071.615338900488
 20
-0.0262701311450115
 30
-59.19728174714124
 40
5.900000000000134
 50
115.0702279493441
 51
359.9999999999999
210
0.0
220
0.0
230
-1.0
  0
ARC
  5
1D6
  8
DEFAULT
 10
1071.615338900488
 20
-183.9737298688549
 30
59.19728174714123
 40
5.900000000000101
 50
295.0702279493419
 51
180.0000000000005
  0
ARC
  5
1D7
  8
DEFAULT
 10
1071.615338900488
 20
-183.9737298688552
 30
59.19728174714126
 40
5.899999999999636
 50
179.9999999999978
 51
244.929772050661
  0
LINE
  5
1D8
  8
DEFAULT
 10
1069.115338900488
 20
-189.31788555521
 30
59.19728174714123
 11
1069.115338900488
 21
-190.273729868855
 31
59.19728174714123
  0
ARC
  5
1D9
  8
DEFAULT
 10
1071.615338900488
 20
-190.2737298688551
 30
59.19728174714123
 40
2.5
 50
179.9999999999974
 51
0.0000000000026055
  0
LINE
  5
1DA
  8
DEFAULT
 10
1074.115338900488
 20
-190.273729868855
 30
59.19728174714123
 11
1074.115338900488
 21
-189.31788555521
 31
59.19728174714123
  0
ARC
  5
1DB
  8
DEFAULT
 10
904.3846610995116
 20
-0.0262701311448055
 30
59.1972817472213
 40
5.900000000000003
 50
115.0702279493435
 51
359.999999999999
  0
ARC
  5
1DC
  8
DEFAULT
 10
904.384661099512
 20
-0.0262701311445994
 30
59.1972817472213
 40
5.899999999999523
 50
359.999999999997
 51
64.92977205066144
  0
LINE
  5
1DD
  8
DEFAULT
 10
906.8846610995115
 20
5.317885555210099
 30
59.1972817472213
 11
906.8846610995115
 21
6.273729868855098
 31
59.19728174722128
  0
ARC
  5
1DE
  8
DEFAULT
 10
904.3846610995116
 20
6.273729868855185
 30
59.19728174722128
 40
2.499999999999886
 50
359.999999999998
 51
180.000000000002
  0
LINE
  5
1DF
  8
DEFAULT
 10
901.8846610995115
 20
6.273729868855098
 30
59.19728174722128
 11
901.8846610995115
 21
5.317885555210099
 31
59.1972817472213
  0
ARC
  5
1E0
  8
DEFAULT
 10
-904.3846610995122
 20
-183.9737298688554
 30
-59.19728174722132
 40
5.899999999999295
 50
179.9999999999953
 51
244.9297720506619
210
0.0
220
0.0
230
-1.0
  0
LINE
  5
1E1
  8
DEFAULT
 10
906.8846610995115
 20
-189.3178855552099
 30
59.19728174722128
 11
906.8846610995115
 21
-190.2737298688548
 31
59.19728174722128
  0
ARC
  5
1E2
  8
DEFAULT
 10
-904.3846610995114
 20
-190.2737298688547
 30
-59.19728174722128
 40
2.500000000000114
 50
180.0000000000026
 51
359.9999999999974
210
0.0
220
0.0
230
-1.0
  0
LINE
  5
1E3
  8
DEFAULT
 10
901.8846610995115
 20
-190.2737298688548
 30
59.19728174722128
 11
901.8846610995115
 21
-189.3178855552099
 31
59.19728174722128
  0
ARC
  5
1E4
  8
DEFAULT
 10
-904.3846610995114
 20
-183.9737298688549
 30
-59.19728174722129
 40
5.899999999999975
 50
295.0702279493412
 51
179.9999999999995
210
0.0
220
0.0
230
-1.0
  0
LINE
  5
1E5
  8
DEFAULT
 10
1081.230677800977
 20
-92.0
 30
59.19728174714134
 11
1081.230677800977
 21
-205.273729868855
 31
59.19728174714132
  0
LINE
  5
1E6
  8
DEFAULT
 10
1081.230677800977
 20
-205.273729868855
 30
59.19728174714132
 11
894.769322199023
 21
-205.273729868855
 31
59.19728174722136
  0
LINE
  5
1E7
  8
DEFAULT
 10
894.769322199023
 20
-205.273729868855
 30
59.19728174722136
 11
894.7693221990231
 21
21.27372986885511
 31
59.19728174722136
  0
LINE
  5
1E8
  8
DEFAULT
 10
894.7693221990231
 20
21.27372986885511
 30
59.19728174722136
 11
1081.230677800977
 21
21.27372986885499
 31
59.19728174714133
  0
LINE
  5
1E9
  8
DEFAULT
 10
1081.230677800977
 20
21.27372986885499
 30
59.19728174714133
 11
1081.230677800977
 21
-92.0
 31
59.19728174714134
  0
CIRCLE
  5
1EA
  8
DEFAULT
 10
1071.615338900489
 20
-8.227633977720222
 30
59.19728174714132
 40
1.000000000000268
  0
CIRCLE
  5
1EB
  8
DEFAULT
 10
1071.615338900488
 20
18.573729868855
 30
59.19728174714131
 40
0.9999999999999546
  0
CIRCLE
  5
1EC
  8
DEFAULT
 10
-1071.615338900488
 20
-175.7723660222796
 30
-59.19728174714131
 40
0.9999999999998698
210
0.0
220
0.0
230
-1.0
  0
CIRCLE
  5
1ED
  8
DEFAULT
 10
-1071.615338900488
 20
-202.5737298688549
 30
-59.19728174714131
 40
0.9999999999998698
210
0.0
220
0.0
230
-1.0
  0
CIRCLE
  5
1EE
  8
DEFAULT
 10
-904.3846610995116
 20
-8.227633977720274
 30
-59.19728174722137
 40
1.000000000000023
210
0.0
220
0.0
230
-1.0
  0
CIRCLE
  5
1EF
  8
DEFAULT
 10
-904.3846610995117
 20
18.57372986885501
 30
-59.19728174722136
 40
0.9999999999999325
210
0.0
220
0.0
230
-1.0
  0
CIRCLE
  5
1F0
  8
DEFAULT
 10
904.3846610995114
 20
-175.7723660222796
 30
59.19728174722136
 40
1.00000000000013
  0
CIRCLE
  5
1F1
  8
DEFAULT
 10
904.3846610995114
 20
-202.5737298688549
 30
59.19728174722135
 40
1.000000000000148
  0
ENDSEC
  0
EOF
