  0
SECTION
  2
HEADER
  9
$ACADVER
  1
AC1009
  9
$DWGCODEPAGE
  3
ansi_1252
  9
$INSBASE
 10
0.0
 20
0.0
 30
0.0
  9
$EXTMIN
 10
262.0
 20
90.04021172049028
 30
70.99999999999999
  9
$EXTMAX
 10
416.0
 20
185.0402117204903
 30
91.99999999999989
  9
$LIMMIN
 10
0.0
 20
0.0
  9
$LIMMAX
 10
12.0
 20
9.0
  9
$ORTHOMODE
 70
     0
  9
$REGENMODE
 70
     1
  9
$FILLMODE
 70
     1
  9
$QTEXTMODE
 70
     0
  9
$MIRRTEXT
 70
     1
  9
$DRAGMODE
 70
     2
  9
$LTSCALE
 40
1.0
  9
$OSMODE
 70
    37
  9
$ATTMODE
 70
     1
  9
$TEXTSIZE
 40
0.2
  9
$TRACEWID
 40
0.05
  9
$TEXTSTYLE
  7
STANDARD
  9
$CLAYER
  8
PLATE
  9
$CELTYPE
  6
BYLAYER
  9
$CECOLOR
 62
   256
  9
$DIMSCALE
 40
1.0
  9
$DIMASZ
 40
0.18
  9
$DIMEXO
 40
0.0625
  9
$DIMDLI
 40
0.38
  9
$DIMRND
 40
0.0
  9
$DIMDLE
 40
0.0
  9
$DIMEXE
 40
0.18
  9
$DIMTP
 40
0.0
  9
$DIMTM
 40
0.0
  9
$DIMTXT
 40
0.18
  9
$DIMCEN
 40
0.09
  9
$DIMTSZ
 40
0.0
  9
$DIMTOL
 70
     0
  9
$DIMLIM
 70
     0
  9
$DIMTIH
 70
     1
  9
$DIMTOH
 70
     1
  9
$DIMSE1
 70
     0
  9
$DIMSE2
 70
     0
  9
$DIMTAD
 70
     0
  9
$DIMZIN
 70
     0
  9
$DIMBLK
  1

  9
$DIMASO
 70
     1
  9
$DIMSHO
 70
     1
  9
$DIMPOST
  1

  9
$DIMAPOST
  1

  9
$DIMALT
 70
     0
  9
$DIMALTD
 70
     2
  9
$DIMALTF
 40
25.4
  9
$DIMLFAC
 40
1.0
  9
$DIMTOFL
 70
     0
  9
$DIMTVP
 40
0.0
  9
$DIMTIX
 70
     0
  9
$DIMSOXD
 70
     0
  9
$DIMSAH
 70
     0
  9
$DIMBLK1
  1

  9
$DIMBLK2
  1

  9
$DIMSTYLE
  2
STANDARD_ACAD
  9
$DIMCLRD
 70
     0
  9
$DIMCLRE
 70
     0
  9
$DIMCLRT
 70
     0
  9
$DIMTFAC
 40
1.0
  9
$DIMGAP
 40
0.09
  9
$LUNITS
 70
     2
  9
$LUPREC
 70
     3
  9
$SKETCHINC
 40
0.1
  9
$FILLETRAD
 40
0.0
  9
$AUNITS
 70
     0
  9
$AUPREC
 70
     0
  9
$MENU
  1
.
  9
$ELEVATION
 40
0.0
  9
$PELEVATION
 40
0.0
  9
$THICKNESS
 40
0.0
  9
$LIMCHECK
 70
     0
  9
$CHAMFERA
 40
0.0
  9
$CHAMFERB
 40
0.0
  9
$SKPOLY
 70
     0
  9
$TDCREATE
 40
2460788.812733218
  9
$TDUPDATE
 40
2460788.812746412
  9
$TDINDWG
 40
0.0000000116
  9
$TDUSRTIMER
 40
0.0000000116
  9
$USRTIMER
 70
     1
  9
$ANGBASE
 50
0.0
  9
$ANGDIR
 70
     0
  9
$PDMODE
 70
     0
  9
$PDSIZE
 40
0.0
  9
$PLINEWID
 40
0.0
  9
$COORDS
 70
     1
  9
$SPLFRAME
 70
     0
  9
$SPLINETYPE
 70
     6
  9
$SPLINESEGS
 70
     8
  9
$ATTDIA
 70
     0
  9
$ATTREQ
 70
     1
  9
$HANDLING
 70
     1
  9
$HANDSEED
  5
9F
  9
$SURFTAB1
 70
     6
  9
$SURFTAB2
 70
     6
  9
$SURFTYPE
 70
     6
  9
$SURFU
 70
     6
  9
$SURFV
 70
     6
  9
$UCSNAME
  2

  9
$UCSORG
 10
0.0
 20
0.0
 30
0.0
  9
$UCSXDIR
 10
1.0
 20
0.0
 30
0.0
  9
$UCSYDIR
 10
0.0
 20
1.0
 30
0.0
  9
$PUCSNAME
  2

  9
$PUCSORG
 10
0.0
 20
0.0
 30
0.0
  9
$PUCSXDIR
 10
1.0
 20
0.0
 30
0.0
  9
$PUCSYDIR
 10
0.0
 20
1.0
 30
0.0
  9
$USERI1
 70
     0
  9
$USERI2
 70
     0
  9
$USERI3
 70
     0
  9
$USERI4
 70
     0
  9
$USERI5
 70
     0
  9
$USERR1
 40
0.0
  9
$USERR2
 40
0.0
  9
$USERR3
 40
0.0
  9
$USERR4
 40
0.0
  9
$USERR5
 40
0.0
  9
$WORLDVIEW
 70
     1
  9
$SHADEDGE
 70
     3
  9
$SHADEDIF
 70
    70
  9
$TILEMODE
 70
     1
  9
$MAXACTVP
 70
    64
  9
$PLIMCHECK
 70
     0
  9
$PEXTMIN
 10
1.000000000000000E+20
 20
1.000000000000000E+20
 30
1.000000000000000E+20
  9
$PEXTMAX
 10
-1.000000000000000E+20
 20
-1.000000000000000E+20
 30
-1.000000000000000E+20
  9
$PLIMMIN
 10
0.0
 20
0.0
  9
$PLIMMAX
 10
12.0
 20
9.0
  9
$UNITMODE
 70
     0
  9
$VISRETAIN
 70
     1
  9
$PLINEGEN
 70
     0
  9
$PSLTSCALE
 70
     1
  0
ENDSEC
  0
SECTION
  2
TABLES
  0
TABLE
  2
VPORT
 70
     1
  0
VPORT
  2
*ACTIVE
 70
     0
 10
0.0
 20
0.0
 11
1.0
 21
1.0
 12
10.42990654205607
 22
4.5
 13
0.0
 23
0.0
 14
0.5
 24
0.5
 15
0.5
 25
0.5
 16
0.0
 26
0.0
 36
1.0
 17
0.0
 27
0.0
 37
0.0
 40
9.0
 41
1.972972972850329
 42
50.0
 43
0.0
 44
0.0
 50
0.0
 51
0.0
 71
     0
 72
   100
 73
     1
 74
     3
 75
     0
 76
     0
 77
     0
 78
     0
  0
ENDTAB
  0
TABLE
  2
LTYPE
 70
     1
  0
LTYPE
  2
CONTINUOUS
 70
     0
  3
Solid line
 72
    65
 73
     0
 40
0.0
  0
ENDTAB
  0
TABLE
  2
LAYER
 70
     2
  0
LAYER
  2
0
 70
     0
 62
     7
  6
CONTINUOUS
  0
LAYER
  2
PLATE
 70
     0
 62
     7
  6
CONTINUOUS
  0
ENDTAB
  0
TABLE
  2
STYLE
 70
     1
  0
STYLE
  2
STANDARD
 70
     0
 40
0.0
 41
1.0
 50
0.0
 71
     0
 42
0.2
  3
txt
  4

  0
ENDTAB
  0
TABLE
  2
VIEW
 70
     0
  0
ENDTAB
  0
TABLE
  2
UCS
 70
     0
  0
ENDTAB
  0
TABLE
  2
APPID
 70
     2
  0
APPID
  2
ACAD
 70
     0
  0
APPID
  2
RHINO
 70
     0
  0
ENDTAB
  0
TABLE
  2
DIMSTYLE
 70
     1
  0
DIMSTYLE
  2
STANDARD_ACAD
 70
     0
  3

  4

  5

  6

  7

 40
1.0
 41
0.18
 42
0.0625
 43
0.38
 44
0.18
 45
0.0
 46
0.0
 47
0.0
 48
0.0
140
0.18
141
0.09
142
0.0
143
25.4
144
1.0
145
0.0
146
1.0
147
0.09
 71
     0
 72
     0
 73
     1
 74
     1
 75
     0
 76
     0
 77
     0
 78
     0
170
     0
171
     2
172
     0
173
     0
174
     0
175
     0
176
     0
177
     0
178
     0
  0
ENDTAB
  0
ENDSEC
  0
SECTION
  2
BLOCKS
  0
BLOCK
  8
0
  2
$MODEL_SPACE
 70
     0
 10
0.0
 20
0.0
 30
0.0
  3
$MODEL_SPACE
  1

  0
ENDBLK
  5
21
  8
0
  0
BLOCK
 67
     1
  8
0
  2
$PAPER_SPACE
 70
     0
 10
0.0
 20
0.0
 30
0.0
  3
$PAPER_SPACE
  1

  0
ENDBLK
  5
1D
 67
     1
  8
0
  0
ENDSEC
  0
SECTION
  2
ENTITIES
  0
CIRCLE
  5
60
  8
PLATE
 10
-292.9814000000001
 20
153.0765505803479
 30
-71.0
 40
1.629299999999603
210
0.0
220
0.0
230
-1.0
  0
CIRCLE
  5
61
  8
PLATE
 10
-302.9814000000001
 20
153.0765505803479
 30
-71.0
 40
1.629299999999603
210
0.0
220
0.0
230
-1.0
  0
CIRCLE
  5
62
  8
PLATE
 10
-292.9813999999997
 20
104.9956171718809
 30
-71.0
 40
1.629300000000086
210
0.0
220
0.0
230
-1.0
  0
CIRCLE
  5
63
  8
PLATE
 10
-302.9813999999996
 20
104.9956171718808
 30
-71.00000000000001
 40
1.629300000000057
210
0.0
220
0.0
230
-1.0
  0
CIRCLE
  5
64
  8
PLATE
 10
271.9999999999999
 20
139.0402117204902
 30
71.0
 40
1.500000000000057
  0
CIRCLE
  5
65
  8
PLATE
 10
324.0
 20
139.0402117204903
 30
71.0
 40
1.5
  0
CIRCLE
  5
66
  8
PLATE
 10
298.0
 20
165.0402117204903
 30
71.0
 40
1.5
  0
CIRCLE
  5
67
  8
PLATE
 10
297.9999999999999
 20
162.0402117204903
 30
71.00000000000001
 40
1.140323971879297
  0
CIRCLE
  5
68
  8
PLATE
 10
286.5000000000001
 20
158.9587960075324
 30
71.00000000000001
 40
1.140323971879286
  0
CIRCLE
  5
69
  8
PLATE
 10
278.0814157129579
 20
150.5402117204903
 30
71.00000000000001
 40
1.140323971879339
  0
CIRCLE
  5
6A
  8
PLATE
 10
275.0
 20
139.0402117204903
 30
71.00000000000001
 40
1.140323971879354
  0
CIRCLE
  5
6B
  8
PLATE
 10
278.081415712958
 20
127.5402117204903
 30
71.0
 40
1.140323971879269
  0
CIRCLE
  5
6C
  8
PLATE
 10
286.5000000000001
 20
119.1216274334483
 30
71.00000000000001
 40
1.140323971879315
  0
CIRCLE
  5
6D
  8
PLATE
 10
309.5
 20
119.1216274334482
 30
71.0
 40
1.140323971879367
  0
CIRCLE
  5
6E
  8
PLATE
 10
317.9185842870421
 20
127.5402117204903
 30
71.0
 40
1.140323971879339
  0
CIRCLE
  5
6F
  8
PLATE
 10
321.0
 20
139.0402117204904
 30
71.00000000000001
 40
1.140323971879354
  0
CIRCLE
  5
70
  8
PLATE
 10
317.9185842870421
 20
150.5402117204903
 30
71.00000000000003
 40
1.14032397187929
  0
CIRCLE
  5
71
  8
PLATE
 10
309.5000000000001
 20
158.9587960075324
 30
71.00000000000001
 40
1.140323971879318
  0
ARC
  5
72
  8
PLATE
 10
297.9999999999999
 20
113.0402117204903
 30
71.0
 40
1.499999999999976
 50
199.9987718078983
 51
340.0012281921033
  0
LINE
  5
73
  8
PLATE
 10
299.4095499281686
 20
112.5272117204906
 30
71.0
 11
304.2814
 21
112.5272117204906
 31
71.0
  0
LINE
  5
74
  8
PLATE
 10
304.2814
 20
112.5272117204906
 30
71.0
 11
304.2814
 21
114.3892517335372
 31
71.0
  0
LINE
  5
75
  8
PLATE
 10
304.2814
 20
114.3892517335372
 30
71.0
 11
307.135415411642
 21
114.3892517335371
 31
71.0
  0
LINE
  5
76
  8
PLATE
 10
307.135415411642
 20
114.3892517335371
 30
71.0
 11
307.1354154116422
 21
128.4989117204907
 31
71.0
  0
LINE
  5
77
  8
PLATE
 10
307.1354154116422
 20
128.4989117204907
 30
71.0
 11
307.9814000000001
 21
128.4989117204907
 31
71.0
  0
LINE
  5
78
  8
PLATE
 10
307.9814000000001
 20
128.4989117204907
 30
71.0
 11
307.9814000000001
 21
140.8572035608391
 31
71.0
  0
ARC
  5
79
  8
PLATE
 10
298.6113238941857
 20
139.868783524476
 30
70.99999999999999
 40
9.422064550672488
 50
6.021683172410594
 51
25.21780929476034
  0
LINE
  5
7A
  8
PLATE
 10
307.1354154116421
 20
143.883153238275
 30
71.00000000000003
 11
307.135415411642
 21
149.4779338450813
 31
71.00000000000003
  0
LINE
  5
7B
  8
PLATE
 10
307.135415411642
 20
149.4779338450813
 30
71.00000000000003
 11
288.8645527941745
 21
149.4779338450813
 31
71.00000000000003
  0
LINE
  5
7C
  8
PLATE
 10
288.8645527941745
 20
149.4779338450813
 30
71.00000000000003
 11
288.8645527941745
 21
143.8855176166453
 31
71.0
  0
ARC
  5
7D
  8
PLATE
 10
297.340334173259
 20
139.9148118869794
 30
71.0
 40
9.359774248219747
 50
154.8980065330964
 51
179.23234300468
  0
LINE
  5
7E
  8
PLATE
 10
287.9814000000001
 20
140.0402117204906
 30
71.0
 11
287.9814000000001
 21
128.4989117204907
 31
71.0
  0
LINE
  5
7F
  8
PLATE
 10
287.9814000000001
 20
128.4989117204907
 30
71.0
 11
288.8645527941745
 21
128.4989117204907
 31
71.0
  0
LINE
  5
80
  8
PLATE
 10
288.8645527941745
 20
128.4989117204907
 30
71.0
 11
288.8645527941746
 21
114.3892517335371
 31
71.0
  0
LINE
  5
81
  8
PLATE
 10
288.8645527941746
 20
114.3892517335371
 30
71.0
 11
291.6814000000001
 21
114.3892517335371
 31
71.0
  0
LINE
  5
82
  8
PLATE
 10
291.6814000000001
 20
114.3892517335371
 30
71.0
 11
291.6814000000001
 21
112.5272117204906
 31
71.0
  0
LINE
  5
83
  8
PLATE
 10
291.6814000000001
 20
112.5272117204906
 30
71.0
 11
296.5904500718313
 21
112.5272117204906
 31
71.0
  0
LINE
  5
84
  8
PLATE
 10
334.0
 20
185.0402117204903
 30
71.0
 11
334.0
 21
90.04021172049028
 31
71.0
  0
LINE
  5
85
  8
PLATE
 10
334.0
 20
90.04021172049028
 30
71.0
 11
262.0
 21
90.04021172049028
 31
71.0
  0
LINE
  5
86
  8
PLATE
 10
262.0
 20
90.04021172049028
 30
71.0
 11
262.0
 21
185.0402117204903
 31
71.0
  0
LINE
  5
87
  8
PLATE
 10
262.0
 20
185.0402117204903
 30
71.0
 11
334.0
 21
185.0402117204903
 31
71.0
  0
CIRCLE
  5
88
  8
PLATE
 10
-384.9813999999995
 20
104.9956171718808
 30
-91.99999999999989
 40
1.629300000000001
210
0.0
220
0.0
230
-1.0
  0
CIRCLE
  5
89
  8
PLATE
 10
-374.9813999999996
 20
104.9956171718808
 30
-91.99999999999989
 40
1.629300000000057
210
0.0
220
0.0
230
-1.0
  0
CIRCLE
  5
8A
  8
PLATE
 10
-384.9814000000002
 20
153.0765505803479
 30
-91.99999999999989
 40
1.629299999999631
210
0.0
220
0.0
230
-1.0
  0
CIRCLE
  5
8B
  8
PLATE
 10
-374.9814000000002
 20
153.0765505803479
 30
-91.99999999999989
 40
1.629299999999631
210
0.0
220
0.0
230
-1.0
  0
LINE
  5
8C
  8
PLATE
 10
344.0
 20
90.04021172049028
 30
91.99999999999989
 11
416.0
 21
90.04021172049028
 31
91.99999999999989
  0
LINE
  5
8D
  8
PLATE
 10
416.0
 20
90.04021172049028
 30
91.99999999999989
 11
416.0
 21
185.0402117204903
 31
91.99999999999989
  0
LINE
  5
8E
  8
PLATE
 10
416.0
 20
185.0402117204903
 30
91.99999999999989
 11
344.0
 21
185.0402117204903
 31
91.99999999999989
  0
LINE
  5
8F
  8
PLATE
 10
344.0
 20
185.0402117204903
 30
91.99999999999989
 11
344.0
 21
90.04021172049028
 31
91.99999999999989
  0
LINE
  5
90
  8
PLATE
 10
370.8645527941746
 20
149.4779338450813
 30
91.99999999999989
 11
389.135415411642
 21
149.4779338450813
 31
91.99999999999989
  0
LINE
  5
91
  8
PLATE
 10
389.135415411642
 20
149.4779338450813
 30
91.99999999999989
 11
389.135415411642
 21
149.0869955542399
 31
91.99999999999989
  0
LINE
  5
92
  8
PLATE
 10
389.135415411642
 20
149.0869955542399
 30
91.99999999999989
 11
390.0383301501513
 21
149.0869955542399
 31
91.99999999999989
  0
LINE
  5
93
  8
PLATE
 10
390.0383301501513
 20
149.0869955542399
 30
91.99999999999989
 11
390.0383301501513
 21
108.5683107162735
 31
91.99999999999989
  0
LINE
  5
94
  8
PLATE
 10
390.0383301501513
 20
108.5683107162735
 30
91.99999999999989
 11
369.9616698498487
 21
108.5683107162735
 31
91.99999999999989
  0
LINE
  5
95
  8
PLATE
 10
369.9616698498487
 20
108.5683107162735
 30
91.99999999999989
 11
369.9616698498487
 21
149.0869955542399
 31
91.99999999999989
  0
LINE
  5
96
  8
PLATE
 10
369.9616698498487
 20
149.0869955542399
 30
91.99999999999989
 11
370.8645527941746
 21
149.0869955542399
 31
91.99999999999989
  0
LINE
  5
97
  8
PLATE
 10
370.8645527941746
 20
149.0869955542399
 30
91.99999999999989
 11
370.8645527941746
 21
149.4779338450813
 31
91.99999999999989
  0
ENDSEC
  0
EOF
